<svg xmlns="http://www.w3.org/2000/svg" xmlns:xlink="http://www.w3.org/1999/xlink" width="2000" zoomAndPan="magnify" viewBox="0 0 1500 1499.999933" height="2000" preserveAspectRatio="xMidYMid meet" version="1.0"><defs><g/><clipPath id="dbe360ffdd"><rect x="0" width="770" y="0" height="636"/></clipPath><clipPath id="684e0ee970"><rect x="0" width="575" y="0" height="678"/></clipPath><clipPath id="5f4cc11438"><rect x="0" width="934" y="0" height="707"/></clipPath><clipPath id="92967ddabf"><path d="M 708 1313 L 790 1313 L 790 1386.636719 L 708 1386.636719 Z M 708 1313 " clip-rule="nonzero"/></clipPath></defs><g transform="matrix(1, 0, 0, 1, 368, 787)"><g clip-path="url(#dbe360ffdd)"><g fill="#d9d8c3" fill-opacity="1"><g transform="translate(2.855585, 470.336987)"><g><path d="M 191.90625 -334.734375 C 191.90625 -321.972656 190.734375 -308.789062 188.390625 -295.1875 C 186.054688 -281.59375 181.914062 -268.953125 175.96875 -257.265625 C 170.019531 -245.578125 161.941406 -236.015625 151.734375 -228.578125 C 141.535156 -221.140625 128.570312 -217.421875 112.84375 -217.421875 L 70.765625 -217.421875 L 70.765625 -61.84375 C 70.765625 -45.269531 72.890625 -33.050781 77.140625 -25.1875 C 81.390625 -17.320312 85.640625 -12.21875 89.890625 -9.875 C 94.148438 -7.539062 96.28125 -6.375 96.28125 -6.375 L 96.28125 0 L 5.09375 0 L 5.09375 -6.375 C 5.945312 -6.800781 8.179688 -8.179688 11.796875 -10.515625 C 15.410156 -12.859375 19.128906 -17.320312 22.953125 -23.90625 C 26.773438 -30.5 29.113281 -40.382812 29.96875 -53.5625 L 29.96875 -401.671875 C 29.113281 -413.992188 26.664062 -422.8125 22.625 -428.125 C 18.59375 -433.445312 14.660156 -436.742188 10.828125 -438.015625 C 7.003906 -439.285156 5.09375 -439.921875 5.09375 -439.921875 L 5.09375 -446.296875 L 102.65625 -446.296875 C 119.65625 -446.296875 133.890625 -442.789062 145.359375 -435.78125 C 156.835938 -428.769531 165.867188 -419.628906 172.453125 -408.359375 C 179.046875 -397.097656 183.828125 -384.984375 186.796875 -372.015625 C 189.773438 -359.054688 191.476562 -346.628906 191.90625 -334.734375 Z M 103.921875 -228.890625 C 114.972656 -228.890625 123.789062 -232.925781 130.375 -241 C 136.96875 -249.082031 141.859375 -259.175781 145.046875 -271.28125 C 148.234375 -283.394531 150.359375 -295.507812 151.421875 -307.625 C 152.484375 -319.738281 153.015625 -329.835938 153.015625 -337.921875 L 153.015625 -339.1875 C 153.015625 -363.414062 150.25 -382.117188 144.71875 -395.296875 C 139.195312 -408.472656 132.820312 -417.820312 125.59375 -423.34375 C 118.375 -428.875 112 -432.273438 106.46875 -433.546875 C 100.945312 -434.828125 98.1875 -435.46875 98.1875 -435.46875 L 70.765625 -435.46875 L 70.765625 -228.890625 Z M 103.921875 -228.890625 "/></g></g></g><g fill="#d9d8c3" fill-opacity="1"><g transform="translate(178.817041, 470.336987)"><g><path d="M 5.09375 0 L 5.734375 -5.734375 C 5.734375 -5.734375 7.960938 -7.007812 12.421875 -9.5625 C 16.890625 -12.113281 21.78125 -17.320312 27.09375 -25.1875 C 32.40625 -33.050781 35.910156 -45.269531 37.609375 -61.84375 L 90.53125 -384.453125 C 90.957031 -387.003906 91.171875 -389.554688 91.171875 -392.109375 C 91.171875 -394.660156 91.171875 -397 91.171875 -399.125 C 91.171875 -411.875 89.46875 -421.007812 86.0625 -426.53125 C 82.664062 -432.0625 79.691406 -435.675781 77.140625 -437.375 C 75.441406 -438.226562 73.847656 -438.972656 72.359375 -439.609375 C 70.878906 -440.242188 70.140625 -440.5625 70.140625 -440.5625 L 69.5 -446.296875 L 160.03125 -446.296875 L 161.3125 -440.5625 C 161.3125 -440.5625 159.820312 -439.710938 156.84375 -438.015625 C 153.863281 -436.316406 150.882812 -432.914062 147.90625 -427.8125 C 144.9375 -422.707031 143.453125 -414.632812 143.453125 -403.59375 C 143.453125 -398.0625 144.09375 -391.679688 145.375 -384.453125 C 154.71875 -330.472656 163.957031 -276.703125 173.09375 -223.140625 C 182.238281 -169.585938 191.488281 -115.820312 200.84375 -61.84375 C 203.8125 -45.269531 207.953125 -33.050781 213.265625 -25.1875 C 218.578125 -17.320312 223.570312 -12.113281 228.25 -9.5625 C 232.925781 -7.007812 235.265625 -5.734375 235.265625 -5.734375 L 236.546875 0 L 147.921875 0 L 147.28125 -6.375 C 147.28125 -6.375 148.660156 -7.222656 151.421875 -8.921875 C 154.179688 -10.617188 156.941406 -14.125 159.703125 -19.4375 C 162.472656 -24.757812 163.859375 -32.734375 163.859375 -43.359375 C 163.859375 -45.910156 163.859375 -48.882812 163.859375 -52.28125 C 163.859375 -55.675781 163.429688 -58.863281 162.578125 -61.84375 L 148.5625 -151.75 L 67.578125 -151.75 C 66.734375 -145.789062 65.25 -136.859375 63.125 -124.953125 C 61 -113.054688 58.976562 -101.050781 57.0625 -88.9375 C 55.144531 -76.820312 53.765625 -67.789062 52.921875 -61.84375 C 52.492188 -59.71875 52.28125 -57.484375 52.28125 -55.140625 C 52.28125 -52.804688 52.28125 -50.578125 52.28125 -48.453125 C 52.28125 -36.128906 53.976562 -26.882812 57.375 -20.71875 C 60.78125 -14.550781 64.078125 -10.507812 67.265625 -8.59375 C 70.453125 -6.6875 72.046875 -5.734375 72.046875 -5.734375 L 71.40625 0 Z M 68.21875 -165.765625 L 145.375 -165.125 L 105.203125 -390.828125 L 70.140625 -165.765625 Z M 68.21875 -165.765625 "/></g></g></g><g fill="#d9d8c3" fill-opacity="1"><g transform="translate(399.406876, 470.336987)"><g><path d="M 188.078125 -334.734375 C 188.078125 -323.253906 187.015625 -310.816406 184.890625 -297.421875 C 182.765625 -284.035156 179.046875 -271.390625 173.734375 -259.484375 C 168.421875 -247.585938 161.085938 -237.8125 151.734375 -230.15625 C 142.390625 -222.507812 130.28125 -218.6875 115.40625 -218.6875 L 76.515625 -219.328125 L 110.296875 -201.46875 L 169.59375 -54.1875 C 175.96875 -38.882812 182.128906 -27.832031 188.078125 -21.03125 C 194.035156 -14.238281 198.816406 -10.097656 202.421875 -8.609375 C 206.035156 -7.117188 207.84375 -6.375 207.84375 -6.375 L 207.84375 0 L 144.09375 0 L 70.765625 -206.578125 L 70.765625 -61.84375 C 70.765625 -45.269531 72.890625 -33.050781 77.140625 -25.1875 C 81.390625 -17.320312 85.640625 -12.21875 89.890625 -9.875 C 94.148438 -7.539062 96.28125 -6.375 96.28125 -6.375 L 96.28125 0 L 5.09375 0 L 5.09375 -6.375 C 5.945312 -6.800781 8.179688 -8.179688 11.796875 -10.515625 C 15.410156 -12.859375 19.128906 -17.320312 22.953125 -23.90625 C 26.773438 -30.5 29.113281 -40.382812 29.96875 -53.5625 L 29.96875 -401.671875 C 29.113281 -413.992188 26.664062 -422.8125 22.625 -428.125 C 18.59375 -433.445312 14.660156 -436.742188 10.828125 -438.015625 C 7.003906 -439.285156 5.09375 -439.921875 5.09375 -439.921875 L 5.09375 -446.296875 L 98.828125 -446.296875 C 115.828125 -446.296875 129.957031 -442.789062 141.21875 -435.78125 C 152.488281 -428.769531 161.519531 -419.628906 168.3125 -408.359375 C 175.113281 -397.097656 180.003906 -384.984375 182.984375 -372.015625 C 185.960938 -359.054688 187.660156 -346.628906 188.078125 -334.734375 Z M 99.46875 -228.890625 C 110.519531 -228.890625 119.335938 -232.925781 125.921875 -241 C 132.503906 -249.082031 137.492188 -259.175781 140.890625 -271.28125 C 144.296875 -283.394531 146.53125 -295.507812 147.59375 -307.625 C 148.65625 -319.738281 149.1875 -329.835938 149.1875 -337.921875 L 149.1875 -339.1875 C 149.1875 -363.414062 146.421875 -382.117188 140.890625 -395.296875 C 135.367188 -408.472656 128.890625 -417.820312 121.453125 -423.34375 C 114.015625 -428.875 107.53125 -432.273438 102 -433.546875 C 96.476562 -434.828125 93.71875 -435.46875 93.71875 -435.46875 L 70.765625 -435.46875 L 70.765625 -228.890625 Z M 99.46875 -228.890625 "/></g></g></g><g fill="#d9d8c3" fill-opacity="1"><g transform="translate(590.669428, 470.336987)"><g><path d="M 5.09375 -446.296875 L 165.125 -446.296875 L 165.125 -314.328125 L 156.203125 -314.328125 C 156.203125 -314.328125 156.09375 -318.363281 155.875 -326.4375 C 155.664062 -334.507812 155.03125 -344.601562 153.96875 -356.71875 C 152.90625 -368.832031 151.3125 -380.835938 149.1875 -392.734375 C 147.0625 -404.640625 143.875 -414.628906 139.625 -422.703125 C 135.375 -430.785156 130.0625 -434.828125 123.6875 -434.828125 L 119.859375 -434.828125 C 116.460938 -431.847656 112.957031 -426.53125 109.34375 -418.875 C 105.726562 -411.226562 103.921875 -399.753906 103.921875 -384.453125 L 103.921875 -61.84375 C 103.921875 -45.269531 106.046875 -33.050781 110.296875 -25.1875 C 114.546875 -17.320312 118.796875 -12.113281 123.046875 -9.5625 C 127.296875 -7.007812 129.421875 -5.734375 129.421875 -5.734375 L 129.421875 0 L 40.8125 0 L 40.8125 -5.734375 C 40.8125 -5.734375 42.9375 -7.007812 47.1875 -9.5625 C 51.4375 -12.113281 55.6875 -17.320312 59.9375 -25.1875 C 64.1875 -33.050781 66.3125 -45.269531 66.3125 -61.84375 L 66.3125 -384.453125 C 66.3125 -399.753906 64.503906 -411.226562 60.890625 -418.875 C 57.273438 -426.53125 53.769531 -431.847656 50.375 -434.828125 L 46.546875 -434.828125 C 40.171875 -434.828125 34.859375 -430.785156 30.609375 -422.703125 C 26.359375 -414.628906 23.171875 -404.640625 21.046875 -392.734375 C 18.921875 -380.835938 17.328125 -368.832031 16.265625 -356.71875 C 15.203125 -344.601562 14.5625 -334.507812 14.34375 -326.4375 C 14.132812 -318.363281 14.03125 -314.328125 14.03125 -314.328125 L 5.09375 -314.328125 Z M 5.09375 -446.296875 "/></g></g></g></g></g><g transform="matrix(1, 0, 0, 1, 467, 78)"><g clip-path="url(#684e0ee970)"><g fill="#d9d8c3" fill-opacity="1"><g transform="translate(1.730869, 506.606361)"><g><path d="M 5.421875 -474.921875 L 175.71875 -474.921875 L 175.71875 -334.484375 L 166.21875 -334.484375 C 166.21875 -334.484375 166.101562 -338.78125 165.875 -347.375 C 165.65625 -355.96875 164.976562 -366.707031 163.84375 -379.59375 C 162.71875 -392.488281 161.023438 -405.269531 158.765625 -417.9375 C 156.503906 -430.601562 153.109375 -441.234375 148.578125 -449.828125 C 144.054688 -458.421875 138.40625 -462.71875 131.625 -462.71875 L 127.546875 -462.71875 C 123.929688 -459.550781 120.203125 -453.894531 116.359375 -445.75 C 112.515625 -437.613281 110.59375 -425.398438 110.59375 -409.109375 L 110.59375 -65.8125 C 110.59375 -48.164062 112.851562 -35.160156 117.375 -26.796875 C 121.894531 -18.429688 126.414062 -12.890625 130.9375 -10.171875 C 135.46875 -7.460938 137.734375 -6.109375 137.734375 -6.109375 L 137.734375 0 L 43.421875 0 L 43.421875 -6.109375 C 43.421875 -6.109375 45.679688 -7.460938 50.203125 -10.171875 C 54.722656 -12.890625 59.242188 -18.429688 63.765625 -26.796875 C 68.296875 -35.160156 70.5625 -48.164062 70.5625 -65.8125 L 70.5625 -409.109375 C 70.5625 -425.398438 68.640625 -437.613281 64.796875 -445.75 C 60.953125 -453.894531 57.21875 -459.550781 53.59375 -462.71875 L 49.53125 -462.71875 C 42.738281 -462.71875 37.082031 -458.421875 32.5625 -449.828125 C 28.039062 -441.234375 24.648438 -430.601562 22.390625 -417.9375 C 20.128906 -405.269531 18.429688 -392.488281 17.296875 -379.59375 C 16.171875 -366.707031 15.492188 -355.96875 15.265625 -347.375 C 15.035156 -338.78125 14.921875 -334.484375 14.921875 -334.484375 L 5.421875 -334.484375 Z M 5.421875 -474.921875 "/></g></g></g><g fill="#d9d8c3" fill-opacity="1"><g transform="translate(160.485888, 506.606361)"><g><path d="M 224.578125 -474.921875 L 224.578125 -468.140625 C 224.578125 -468.140625 222.3125 -467.347656 217.78125 -465.765625 C 213.257812 -464.179688 208.738281 -460.109375 204.21875 -453.546875 C 199.695312 -446.992188 197.4375 -436.03125 197.4375 -420.65625 L 197.4375 -54.28125 C 197.4375 -39.351562 199.695312 -28.492188 204.21875 -21.703125 C 208.738281 -14.921875 213.257812 -10.738281 217.78125 -9.15625 C 222.3125 -7.570312 224.578125 -6.78125 224.578125 -6.78125 L 224.578125 0 L 127.546875 0 L 127.546875 -6.78125 C 127.546875 -6.78125 129.804688 -7.570312 134.328125 -9.15625 C 138.859375 -10.738281 143.382812 -14.804688 147.90625 -21.359375 C 152.425781 -27.921875 154.6875 -38.894531 154.6875 -54.28125 L 154.6875 -293.09375 L 75.3125 -293.09375 L 75.3125 -54.28125 C 75.3125 -39.351562 77.570312 -28.492188 82.09375 -21.703125 C 86.613281 -14.921875 91.132812 -10.738281 95.65625 -9.15625 C 100.1875 -7.570312 102.453125 -6.78125 102.453125 -6.78125 L 102.453125 0 L 5.421875 0 L 5.421875 -6.78125 C 5.421875 -6.78125 7.679688 -7.570312 12.203125 -9.15625 C 16.734375 -10.738281 21.257812 -14.804688 25.78125 -21.359375 C 30.300781 -27.921875 32.5625 -38.894531 32.5625 -54.28125 L 32.5625 -420.65625 C 32.5625 -436.03125 30.300781 -446.992188 25.78125 -453.546875 C 21.257812 -460.109375 16.734375 -464.179688 12.203125 -465.765625 C 7.679688 -467.347656 5.421875 -468.140625 5.421875 -468.140625 L 5.421875 -474.921875 L 102.453125 -474.921875 L 102.453125 -468.140625 C 102.453125 -468.140625 100.1875 -467.347656 95.65625 -465.765625 C 91.132812 -464.179688 86.613281 -459.882812 82.09375 -452.875 C 77.570312 -445.863281 75.3125 -433.992188 75.3125 -417.265625 L 75.3125 -305.3125 L 154.6875 -305.3125 L 154.6875 -420.65625 C 154.6875 -436.03125 152.425781 -446.992188 147.90625 -453.546875 C 143.382812 -460.109375 138.859375 -464.179688 134.328125 -465.765625 C 129.804688 -467.347656 127.546875 -468.140625 127.546875 -468.140625 L 127.546875 -474.921875 Z M 224.578125 -474.921875 "/></g></g></g><g fill="#d9d8c3" fill-opacity="1"><g transform="translate(368.089261, 506.606361)"><g><path d="M 190.65625 0 L 5.421875 0 L 5.421875 -6.78125 C 5.421875 -6.78125 7.679688 -8.023438 12.203125 -10.515625 C 16.734375 -13.003906 21.257812 -18.429688 25.78125 -26.796875 C 30.300781 -35.160156 32.5625 -48.164062 32.5625 -65.8125 L 32.5625 -409.109375 C 32.5625 -427.660156 30.300781 -441.003906 25.78125 -449.140625 C 21.257812 -457.285156 16.734375 -462.488281 12.203125 -464.75 C 7.679688 -467.007812 5.421875 -468.140625 5.421875 -468.140625 L 5.421875 -474.921875 L 190.65625 -474.921875 L 190.65625 -334.484375 L 181.15625 -334.484375 C 181.15625 -334.484375 181.039062 -338.78125 180.8125 -347.375 C 180.582031 -355.96875 179.898438 -366.707031 178.765625 -379.59375 C 177.640625 -392.488281 175.945312 -405.269531 173.6875 -417.9375 C 171.425781 -430.601562 168.03125 -441.234375 163.5 -449.828125 C 158.976562 -458.421875 153.328125 -462.71875 146.546875 -462.71875 L 75.3125 -462.71875 L 75.3125 -304.625 L 130.9375 -304.625 C 135.914062 -304.625 139.875 -309.257812 142.8125 -318.53125 C 145.757812 -327.8125 147.910156 -338.441406 149.265625 -350.421875 C 150.617188 -362.410156 151.410156 -373.039062 151.640625 -382.3125 C 151.867188 -391.582031 151.984375 -396.21875 151.984375 -396.21875 L 161.46875 -396.21875 L 161.46875 -200.828125 L 151.984375 -200.828125 C 151.984375 -204.441406 151.867188 -211.109375 151.640625 -220.828125 C 151.410156 -230.554688 150.726562 -240.960938 149.59375 -252.046875 C 148.46875 -263.128906 146.4375 -272.628906 143.5 -280.546875 C 140.5625 -288.460938 136.601562 -292.421875 131.625 -292.421875 L 75.3125 -292.421875 L 75.3125 -12.21875 L 146.546875 -12.21875 C 153.328125 -12.21875 158.976562 -16.515625 163.5 -25.109375 C 168.03125 -33.703125 171.425781 -44.328125 173.6875 -56.984375 C 175.945312 -69.648438 177.640625 -82.425781 178.765625 -95.3125 C 179.898438 -108.207031 180.582031 -118.953125 180.8125 -127.546875 C 181.039062 -136.140625 181.15625 -140.4375 181.15625 -140.4375 L 190.65625 -140.4375 Z M 190.65625 0 "/></g></g></g></g></g><g transform="matrix(1, 0, 0, 1, 279, 398)"><g clip-path="url(#5f4cc11438)"><g fill="#d9d8c3" fill-opacity="1"><g transform="translate(35.107758, 417.822973)"><g><path d="M 243.09375 -166.296875 C 242.78125 -167.304688 242.40625 -168.410156 241.96875 -169.609375 C 241.53125 -170.804688 241.25 -172.023438 241.125 -173.265625 C 240.550781 -178.816406 241.9375 -185.601562 245.28125 -193.625 C 245.613281 -194.488281 246.082031 -195.46875 246.6875 -196.5625 C 247.300781 -197.664062 247.664062 -198.640625 247.78125 -199.484375 L 251.828125 -205.8125 C 254.335938 -209.613281 257.722656 -214.015625 261.984375 -219.015625 C 266.253906 -224.015625 271.101562 -228.453125 276.53125 -232.328125 C 278.09375 -233.316406 279.796875 -233.90625 281.640625 -234.09375 C 284.921875 -234.4375 287.269531 -233.742188 288.6875 -232.015625 C 289.394531 -231.253906 289.832031 -230.050781 290 -228.40625 C 290.1875 -226.5625 289.660156 -224.585938 288.421875 -222.484375 C 287.191406 -220.390625 284.878906 -218.648438 281.484375 -217.265625 C 279.679688 -216.660156 276.816406 -215.222656 272.890625 -212.953125 C 268.960938 -210.679688 264.984375 -207.46875 260.953125 -203.3125 C 256.921875 -199.164062 253.671875 -193.847656 251.203125 -187.359375 C 249.484375 -181.992188 248.8125 -177.46875 249.1875 -173.78125 C 249.3125 -172.539062 249.660156 -171.117188 250.234375 -169.515625 C 251.285156 -167.335938 252.535156 -165.800781 253.984375 -164.90625 C 255.429688 -164.019531 256.476562 -163.410156 257.125 -163.078125 C 257.332031 -163.097656 258.34375 -162.832031 260.15625 -162.28125 C 261.976562 -161.738281 264.742188 -161.65625 268.453125 -162.03125 C 272.972656 -162.5 278.71875 -164.175781 285.6875 -167.0625 C 292.664062 -169.957031 300.960938 -175.117188 310.578125 -182.546875 C 320.203125 -189.972656 331.0625 -200.535156 343.15625 -214.234375 C 358.050781 -231.128906 368.847656 -247.910156 375.546875 -264.578125 C 382.242188 -281.253906 385.015625 -295.242188 383.859375 -306.546875 C 383.503906 -310.046875 382.632812 -313.488281 381.25 -316.875 C 375.195312 -329.34375 362.097656 -334.546875 341.953125 -332.484375 C 330.035156 -331.265625 317.804688 -327.519531 305.265625 -321.25 C 292.722656 -314.976562 280.363281 -306.910156 268.1875 -297.046875 C 256.019531 -287.179688 244.332031 -276.117188 233.125 -263.859375 C 221.914062 -251.609375 211.59375 -238.820312 202.15625 -225.5 C 192.71875 -212.175781 184.507812 -199.03125 177.53125 -186.0625 C 174.550781 -180.570312 171.722656 -174.675781 169.046875 -168.375 C 166.367188 -162.082031 163.914062 -155.601562 161.6875 -148.9375 C 175.507812 -147.851562 187.785156 -145.578125 198.515625 -142.109375 C 209.253906 -138.640625 217.742188 -135.351562 223.984375 -132.25 C 230.222656 -129.15625 233.351562 -127.507812 233.375 -127.3125 C 234.320312 -126.15625 234.828125 -125.269531 234.890625 -124.65625 C 234.992188 -123.625 234.675781 -122.660156 233.9375 -121.765625 C 233.382812 -121.078125 232.59375 -120.679688 231.5625 -120.578125 C 230.539062 -120.472656 229.484375 -120.679688 228.390625 -121.203125 C 222.078125 -124.078125 215.5 -126.976562 208.65625 -129.90625 C 201.8125 -132.84375 192.367188 -135.359375 180.328125 -137.453125 C 176.921875 -138.128906 173.4375 -138.648438 169.875 -139.015625 C 166.3125 -139.378906 162.554688 -139.566406 158.609375 -139.578125 C 154.722656 -126.722656 151.9375 -113.820312 150.25 -100.875 C 148.5625 -87.925781 148.273438 -76.003906 149.390625 -65.109375 C 150.691406 -52.378906 154.0625 -41.828125 159.5 -33.453125 C 163.6875 -27.023438 169.09375 -22.851562 175.71875 -20.9375 C 182.351562 -19.019531 187.9375 -18.296875 192.46875 -18.765625 C 207.050781 -20.253906 221.140625 -24.601562 234.734375 -31.8125 C 248.328125 -39.019531 261.128906 -47.851562 273.140625 -58.3125 C 285.148438 -68.78125 296.117188 -79.765625 306.046875 -91.265625 C 315.984375 -102.773438 324.546875 -113.519531 331.734375 -123.5 C 338.921875 -133.488281 344.519531 -141.695312 348.53125 -148.125 C 352.539062 -154.550781 354.640625 -157.878906 354.828125 -158.109375 C 354.828125 -158.109375 355.90625 -159.722656 358.0625 -162.953125 C 360.226562 -166.191406 362.613281 -169.289062 365.21875 -172.25 C 367.4375 -174.96875 368.75 -176.347656 369.15625 -176.390625 C 369.53125 -176.835938 370.226562 -177.117188 371.25 -177.234375 C 372.894531 -177.398438 373.976562 -176.988281 374.5 -176 C 374.945312 -175.644531 375.234375 -174.847656 375.359375 -173.609375 C 375.503906 -172.171875 375.09375 -171.085938 374.125 -170.359375 C 374.125 -170.359375 372.8125 -168.457031 370.1875 -164.65625 C 367.570312 -160.863281 364.570312 -155.160156 361.1875 -147.546875 C 358.5 -141.441406 356.453125 -135.101562 355.046875 -128.53125 C 353.640625 -121.957031 351.816406 -115.441406 349.578125 -108.984375 C 340.703125 -75.890625 330.457031 -47.582031 318.84375 -24.0625 C 307.238281 -0.550781 294.957031 18.925781 282 34.375 C 269.039062 49.832031 255.867188 62.1875 242.484375 71.4375 C 229.109375 80.695312 216.117188 87.6875 203.515625 92.40625 C 190.910156 97.132812 179.195312 100.410156 168.375 102.234375 C 157.5625 104.054688 148.253906 105.367188 140.453125 106.171875 C 118.867188 108.378906 98.851562 106.585938 80.40625 100.796875 C 61.957031 95.003906 46.191406 86.078125 33.109375 74.015625 C 20.035156 61.960938 10.894531 47.6875 5.6875 31.1875 C 4.414062 26.957031 3.359375 22.753906 2.515625 18.578125 C 1.679688 14.410156 1.039062 10.171875 0.59375 5.859375 C -1.101562 -10.796875 0.171875 -27.226562 4.421875 -43.4375 C 8.679688 -59.65625 15.609375 -74.691406 25.203125 -88.546875 C 34.796875 -102.410156 46.59375 -114 60.59375 -123.3125 C 72.644531 -131.207031 84.597656 -137.109375 96.453125 -141.015625 C 108.316406 -144.929688 119.800781 -147.457031 130.90625 -148.59375 L 133.0625 -148.8125 C 135.25 -155.675781 137.71875 -162.414062 140.46875 -169.03125 C 143.226562 -175.65625 146.1875 -181.828125 149.34375 -187.546875 C 159.28125 -206.003906 171.195312 -223.9375 185.09375 -241.34375 C 199 -258.757812 214.3125 -274.550781 231.03125 -288.71875 C 247.757812 -302.894531 265.460938 -314.570312 284.140625 -323.75 C 302.828125 -332.9375 321.828125 -338.519531 341.140625 -340.5 C 353.273438 -341.738281 364.523438 -340.394531 374.890625 -336.46875 C 385.253906 -332.550781 392.660156 -326.144531 397.109375 -317.25 C 400.203125 -311.332031 402.109375 -304.878906 402.828125 -297.890625 C 404.128906 -285.148438 401.664062 -271.140625 395.4375 -255.859375 C 389.207031 -240.585938 379.679688 -225.65625 366.859375 -211.0625 C 354.410156 -196.6875 342.515625 -185.546875 331.171875 -177.640625 C 319.828125 -169.734375 309.394531 -164.097656 299.875 -160.734375 C 290.351562 -157.367188 282.101562 -155.332031 275.125 -154.625 C 268.75 -153.96875 263.757812 -153.972656 260.15625 -154.640625 C 256.5625 -155.316406 254.660156 -155.644531 254.453125 -155.625 C 253.390625 -155.925781 251.632812 -156.882812 249.1875 -158.5 C 246.738281 -160.125 244.707031 -162.722656 243.09375 -166.296875 Z M 191.6875 -8.09375 C 184.695312 -7.375 177.457031 -7.566406 169.96875 -8.671875 C 162.476562 -9.773438 155.617188 -11.875 149.390625 -14.96875 C 143.160156 -18.070312 138.328125 -22.148438 134.890625 -27.203125 C 131.679688 -32.265625 129.070312 -38.015625 127.0625 -44.453125 C 125.050781 -50.898438 123.660156 -57.925781 122.890625 -65.53125 C 121.773438 -76.425781 121.875 -88.117188 123.1875 -100.609375 C 124.5 -113.097656 126.804688 -125.535156 130.109375 -137.921875 C 119.253906 -136.597656 108.550781 -134.203125 98 -130.734375 C 87.445312 -127.265625 77.882812 -122.707031 69.3125 -117.0625 C 56.289062 -108.457031 45.503906 -97.691406 36.953125 -84.765625 C 28.410156 -71.847656 22.253906 -57.929688 18.484375 -43.015625 C 14.722656 -28.097656 13.628906 -12.925781 15.203125 2.5 C 15.648438 6.800781 16.289062 11.035156 17.125 15.203125 C 17.96875 19.378906 19.023438 23.585938 20.296875 27.828125 C 25.203125 43.316406 33.601562 55.953125 45.5 65.734375 C 57.40625 75.523438 71.867188 82.40625 88.890625 86.375 C 105.910156 90.351562 124.5 91.410156 144.65625 89.546875 C 155.5625 88.429688 167.597656 85.273438 180.765625 80.078125 C 193.941406 74.890625 207.316406 67.601562 220.890625 58.21875 C 234.472656 48.84375 247.109375 37.320312 258.796875 23.65625 C 263.785156 17.75 270.117188 9.679688 277.796875 -0.546875 C 285.484375 -10.785156 293.515625 -22.664062 301.890625 -36.1875 C 310.265625 -49.707031 318.265625 -64.332031 325.890625 -80.0625 C 333.523438 -95.800781 339.921875 -111.929688 345.078125 -128.453125 C 339.671875 -120.421875 333.015625 -111.378906 325.109375 -101.328125 C 317.210938 -91.273438 308.394531 -81.078125 298.65625 -70.734375 C 288.914062 -60.398438 278.328125 -50.75 266.890625 -41.78125 C 255.453125 -32.820312 243.398438 -25.304688 230.734375 -19.234375 C 218.066406 -13.171875 205.050781 -9.457031 191.6875 -8.09375 Z M 191.6875 -8.09375 "/></g></g></g><g fill="#d9d8c3" fill-opacity="1"><g transform="translate(417.382355, 378.704718)"><g><path d="M 173.25 -139.53125 C 174.75 -139.050781 175.582031 -137.992188 175.75 -136.359375 C 175.832031 -135.523438 175.789062 -134.894531 175.625 -134.46875 C 171.8125 -125.15625 166.691406 -117.414062 160.265625 -111.25 C 153.835938 -105.09375 146.738281 -100.367188 138.96875 -97.078125 C 131.207031 -93.796875 123.421875 -91.757812 115.609375 -90.96875 L 111.90625 -90.578125 C 110.664062 -86.503906 109.21875 -82.410156 107.5625 -78.296875 C 105.90625 -74.179688 104.054688 -69.941406 102.015625 -65.578125 C 93.617188 -48.109375 83.597656 -33.84375 71.953125 -22.78125 C 60.316406 -11.726562 48.664062 -5.394531 37 -3.78125 L 34.21875 -3.5 C 25.582031 -2.613281 18.546875 -3.863281 13.109375 -7.25 C 7.679688 -10.644531 3.632812 -15.21875 0.96875 -20.96875 C -1.695312 -26.71875 -3.320312 -32.46875 -3.90625 -38.21875 C -4.007812 -39.25 -4.109375 -40.226562 -4.203125 -41.15625 C -4.304688 -42.082031 -4.296875 -42.960938 -4.171875 -43.796875 C -4.078125 -52.953125 -2.800781 -62.796875 -0.34375 -73.328125 C 2.113281 -83.859375 5.929688 -94.269531 11.109375 -104.5625 C 21.992188 -126.03125 33.546875 -141.488281 45.765625 -150.9375 C 57.984375 -160.382812 69.738281 -165.6875 81.03125 -166.84375 L 84.4375 -167.1875 C 85.675781 -167.3125 87.921875 -167.226562 91.171875 -166.9375 C 94.421875 -166.65625 97.953125 -165.617188 101.765625 -163.828125 C 105.585938 -162.046875 108.957031 -159.070312 111.875 -154.90625 C 114.789062 -150.738281 116.644531 -144.75 117.4375 -136.9375 C 117.570312 -135.695312 117.65625 -134.40625 117.6875 -133.0625 C 117.726562 -131.71875 117.738281 -130.113281 117.71875 -128.25 C 117.757812 -123.675781 117.515625 -118.921875 116.984375 -113.984375 C 116.453125 -109.054688 115.734375 -103.945312 114.828125 -98.65625 C 125.097656 -99.707031 135.3125 -103.347656 145.46875 -109.578125 C 155.632812 -115.804688 163.203125 -125.097656 168.171875 -137.453125 C 168.660156 -138.753906 169.722656 -139.488281 171.359375 -139.65625 C 172.191406 -139.738281 172.820312 -139.695312 173.25 -139.53125 Z M 109.5625 -125.53125 C 109.625 -126.988281 109.628906 -128.492188 109.578125 -130.046875 C 109.523438 -131.597656 109.425781 -133.09375 109.28125 -134.53125 C 109.0625 -136.582031 108.738281 -138.675781 108.3125 -140.8125 C 107.882812 -142.957031 107.160156 -145.015625 106.140625 -146.984375 C 104.003906 -151.546875 101.117188 -154.316406 97.484375 -155.296875 C 93.859375 -156.273438 90.710938 -156.625 88.046875 -156.34375 C 87.429688 -156.28125 86.867188 -156.171875 86.359375 -156.015625 C 85.859375 -155.859375 85.40625 -155.757812 85 -155.71875 C 78.726562 -154.050781 74.476562 -150.867188 72.25 -146.171875 C 70.03125 -141.472656 68.960938 -136.742188 69.046875 -131.984375 L 69.3125 -129.5 C 70.019531 -122.519531 73.191406 -115.835938 78.828125 -109.453125 C 84.472656 -103.078125 92.425781 -99.484375 102.6875 -98.671875 L 105.828125 -98.359375 C 108.160156 -107.941406 109.40625 -117 109.5625 -125.53125 Z M 95.109375 -68.90625 C 96.816406 -72.613281 98.363281 -76.304688 99.75 -79.984375 C 101.132812 -83.660156 102.382812 -87.210938 103.5 -90.640625 C 103.289062 -90.617188 103.078125 -90.648438 102.859375 -90.734375 C 102.640625 -90.816406 102.320312 -90.835938 101.90625 -90.796875 C 89.757812 -91.835938 80.226562 -96.210938 73.3125 -103.921875 C 66.394531 -111.628906 62.488281 -119.894531 61.59375 -128.71875 L 61.265625 -131.8125 C 61.304688 -133.476562 61.359375 -134.988281 61.421875 -136.34375 C 61.492188 -137.695312 61.675781 -139.015625 61.96875 -140.296875 C 51.976562 -130.335938 43.40625 -117.722656 36.25 -102.453125 C 31.632812 -92.640625 27.707031 -82.789062 24.46875 -72.90625 C 21.226562 -63.019531 19.625 -53.820312 19.65625 -45.3125 C 19.570312 -44.050781 19.585938 -42.851562 19.703125 -41.71875 C 19.828125 -40.59375 19.941406 -39.515625 20.046875 -38.484375 C 20.691406 -32.117188 22.367188 -26.84375 25.078125 -22.65625 C 27.796875 -18.476562 31.773438 -16.132812 37.015625 -15.625 C 37.867188 -15.5 39.007812 -15.507812 40.4375 -15.65625 C 45.78125 -16.207031 51.742188 -18.84375 58.328125 -23.5625 C 64.910156 -28.28125 71.484375 -34.5625 78.046875 -42.40625 C 84.617188 -50.25 90.304688 -59.082031 95.109375 -68.90625 Z M 95.109375 -68.90625 "/></g></g></g><g fill="#d9d8c3" fill-opacity="1"><g transform="translate(553.953077, 364.729402)"><g><path d="M 173.25 -139.53125 C 174.75 -139.050781 175.582031 -137.992188 175.75 -136.359375 C 175.832031 -135.523438 175.789062 -134.894531 175.625 -134.46875 C 171.8125 -125.15625 166.691406 -117.414062 160.265625 -111.25 C 153.835938 -105.09375 146.738281 -100.367188 138.96875 -97.078125 C 131.207031 -93.796875 123.421875 -91.757812 115.609375 -90.96875 L 111.90625 -90.578125 C 110.664062 -86.503906 109.21875 -82.410156 107.5625 -78.296875 C 105.90625 -74.179688 104.054688 -69.941406 102.015625 -65.578125 C 93.617188 -48.109375 83.597656 -33.84375 71.953125 -22.78125 C 60.316406 -11.726562 48.664062 -5.394531 37 -3.78125 L 34.21875 -3.5 C 25.582031 -2.613281 18.546875 -3.863281 13.109375 -7.25 C 7.679688 -10.644531 3.632812 -15.21875 0.96875 -20.96875 C -1.695312 -26.71875 -3.320312 -32.46875 -3.90625 -38.21875 C -4.007812 -39.25 -4.109375 -40.226562 -4.203125 -41.15625 C -4.304688 -42.082031 -4.296875 -42.960938 -4.171875 -43.796875 C -4.078125 -52.953125 -2.800781 -62.796875 -0.34375 -73.328125 C 2.113281 -83.859375 5.929688 -94.269531 11.109375 -104.5625 C 21.992188 -126.03125 33.546875 -141.488281 45.765625 -150.9375 C 57.984375 -160.382812 69.738281 -165.6875 81.03125 -166.84375 L 84.4375 -167.1875 C 85.675781 -167.3125 87.921875 -167.226562 91.171875 -166.9375 C 94.421875 -166.65625 97.953125 -165.617188 101.765625 -163.828125 C 105.585938 -162.046875 108.957031 -159.070312 111.875 -154.90625 C 114.789062 -150.738281 116.644531 -144.75 117.4375 -136.9375 C 117.570312 -135.695312 117.65625 -134.40625 117.6875 -133.0625 C 117.726562 -131.71875 117.738281 -130.113281 117.71875 -128.25 C 117.757812 -123.675781 117.515625 -118.921875 116.984375 -113.984375 C 116.453125 -109.054688 115.734375 -103.945312 114.828125 -98.65625 C 125.097656 -99.707031 135.3125 -103.347656 145.46875 -109.578125 C 155.632812 -115.804688 163.203125 -125.097656 168.171875 -137.453125 C 168.660156 -138.753906 169.722656 -139.488281 171.359375 -139.65625 C 172.191406 -139.738281 172.820312 -139.695312 173.25 -139.53125 Z M 109.5625 -125.53125 C 109.625 -126.988281 109.628906 -128.492188 109.578125 -130.046875 C 109.523438 -131.597656 109.425781 -133.09375 109.28125 -134.53125 C 109.0625 -136.582031 108.738281 -138.675781 108.3125 -140.8125 C 107.882812 -142.957031 107.160156 -145.015625 106.140625 -146.984375 C 104.003906 -151.546875 101.117188 -154.316406 97.484375 -155.296875 C 93.859375 -156.273438 90.710938 -156.625 88.046875 -156.34375 C 87.429688 -156.28125 86.867188 -156.171875 86.359375 -156.015625 C 85.859375 -155.859375 85.40625 -155.757812 85 -155.71875 C 78.726562 -154.050781 74.476562 -150.867188 72.25 -146.171875 C 70.03125 -141.472656 68.960938 -136.742188 69.046875 -131.984375 L 69.3125 -129.5 C 70.019531 -122.519531 73.191406 -115.835938 78.828125 -109.453125 C 84.472656 -103.078125 92.425781 -99.484375 102.6875 -98.671875 L 105.828125 -98.359375 C 108.160156 -107.941406 109.40625 -117 109.5625 -125.53125 Z M 95.109375 -68.90625 C 96.816406 -72.613281 98.363281 -76.304688 99.75 -79.984375 C 101.132812 -83.660156 102.382812 -87.210938 103.5 -90.640625 C 103.289062 -90.617188 103.078125 -90.648438 102.859375 -90.734375 C 102.640625 -90.816406 102.320312 -90.835938 101.90625 -90.796875 C 89.757812 -91.835938 80.226562 -96.210938 73.3125 -103.921875 C 66.394531 -111.628906 62.488281 -119.894531 61.59375 -128.71875 L 61.265625 -131.8125 C 61.304688 -133.476562 61.359375 -134.988281 61.421875 -136.34375 C 61.492188 -137.695312 61.675781 -139.015625 61.96875 -140.296875 C 51.976562 -130.335938 43.40625 -117.722656 36.25 -102.453125 C 31.632812 -92.640625 27.707031 -82.789062 24.46875 -72.90625 C 21.226562 -63.019531 19.625 -53.820312 19.65625 -45.3125 C 19.570312 -44.050781 19.585938 -42.851562 19.703125 -41.71875 C 19.828125 -40.59375 19.941406 -39.515625 20.046875 -38.484375 C 20.691406 -32.117188 22.367188 -26.84375 25.078125 -22.65625 C 27.796875 -18.476562 31.773438 -16.132812 37.015625 -15.625 C 37.867188 -15.5 39.007812 -15.507812 40.4375 -15.65625 C 45.78125 -16.207031 51.742188 -18.84375 58.328125 -23.5625 C 64.910156 -28.28125 71.484375 -34.5625 78.046875 -42.40625 C 84.617188 -50.25 90.304688 -59.082031 95.109375 -68.90625 Z M 95.109375 -68.90625 "/></g></g></g><g fill="#d9d8c3" fill-opacity="1"><g transform="translate(690.523764, 350.754089)"><g><path d="M 175.015625 -94.859375 C 176.554688 -93.972656 177.40625 -92.8125 177.5625 -91.375 C 177.601562 -90.957031 177.457031 -90.316406 177.125 -89.453125 C 173.257812 -80.554688 169.082031 -71.671875 164.59375 -62.796875 C 160.101562 -53.921875 155.28125 -45.738281 150.125 -38.25 C 144.96875 -30.769531 139.257812 -24.632812 133 -19.84375 C 126.75 -15.050781 119.921875 -12.273438 112.515625 -11.515625 C 102.441406 -10.484375 94.054688 -12.269531 87.359375 -16.875 C 80.660156 -21.488281 76.804688 -28.726562 75.796875 -38.59375 C 75.710938 -39.414062 75.679688 -40.191406 75.703125 -40.921875 C 75.734375 -41.660156 75.707031 -42.4375 75.625 -43.25 C 68.90625 -31.769531 61.8125 -22.476562 54.34375 -15.375 C 46.875 -8.28125 39.128906 -4.320312 31.109375 -3.5 L 29.875 -3.375 C 22.476562 -2.613281 16.398438 -3.648438 11.640625 -6.484375 C 6.878906 -9.316406 3.3125 -13.207031 0.9375 -18.15625 C -1.4375 -23.101562 -2.90625 -28.359375 -3.46875 -33.921875 C -3.59375 -35.148438 -3.71875 -36.378906 -3.84375 -37.609375 C -3.96875 -38.847656 -3.984375 -39.988281 -3.890625 -41.03125 C -3.554688 -50 -2.050781 -59.65625 0.625 -70 C 3.3125 -80.34375 7.140625 -90.648438 12.109375 -100.921875 C 19.816406 -116.859375 27.5 -129.53125 35.15625 -138.9375 C 42.8125 -148.351562 50.3125 -155.195312 57.65625 -159.46875 C 65.007812 -163.75 71.867188 -166.21875 78.234375 -166.875 C 80.910156 -167.144531 83.457031 -167.144531 85.875 -166.875 C 88.289062 -166.601562 90.570312 -166.160156 92.71875 -165.546875 C 97.207031 -164.347656 100.578125 -161.835938 102.828125 -158.015625 C 105.085938 -154.191406 106.503906 -149.507812 107.078125 -143.96875 C 107.390625 -140.875 107.445312 -137.25 107.25 -133.09375 L 158.6875 -251.421875 L 185.203125 -254.140625 L 108.59375 -80.265625 C 104.757812 -71.148438 101.59375 -63.035156 99.09375 -55.921875 C 96.601562 -48.816406 95.691406 -41.976562 96.359375 -35.40625 C 96.660156 -32.53125 97.851562 -29.535156 99.9375 -26.421875 C 102.019531 -23.304688 105.363281 -21.578125 109.96875 -21.234375 C 110.601562 -21.085938 111.742188 -21.097656 113.390625 -21.265625 C 116.878906 -21.617188 120.785156 -23.003906 125.109375 -25.421875 C 129.429688 -27.835938 133.90625 -31.875 138.53125 -37.53125 C 144.488281 -44.164062 150.03125 -52.3125 155.15625 -61.96875 C 160.289062 -71.632812 165.21875 -81.90625 169.9375 -92.78125 C 170.414062 -94.070312 171.476562 -94.800781 173.125 -94.96875 C 173.945312 -95.050781 174.578125 -95.015625 175.015625 -94.859375 Z M 50.28125 -23.203125 C 55.820312 -27.929688 61.128906 -34.394531 66.203125 -42.59375 C 71.273438 -50.800781 76.175781 -60.226562 80.90625 -70.875 C 81.71875 -73.039062 82.535156 -75.15625 83.359375 -77.21875 C 84.191406 -79.28125 85.015625 -81.390625 85.828125 -83.546875 L 87.09375 -86.46875 C 91.15625 -97.476562 94.285156 -107.972656 96.484375 -117.953125 C 98.679688 -127.941406 99.429688 -136.332031 98.734375 -143.125 C 97.972656 -150.519531 95.316406 -155.226562 90.765625 -157.25 C 89.003906 -158.101562 87.097656 -158.425781 85.046875 -158.21875 C 80.328125 -157.738281 75.085938 -154.660156 69.328125 -148.984375 C 63.578125 -143.316406 57.929688 -136.09375 52.390625 -127.3125 C 46.847656 -118.539062 41.773438 -109.25 37.171875 -99.4375 C 32.585938 -89.40625 28.769531 -79.507812 25.71875 -69.75 C 22.675781 -60 20.972656 -50.847656 20.609375 -42.296875 C 20.546875 -40.835938 20.535156 -39.378906 20.578125 -37.921875 C 20.617188 -36.472656 20.710938 -35.03125 20.859375 -33.59375 C 21.515625 -27.21875 23.191406 -22.507812 25.890625 -19.46875 C 28.585938 -16.425781 31.890625 -15.101562 35.796875 -15.5 C 40.515625 -15.988281 45.34375 -18.554688 50.28125 -23.203125 Z M 50.28125 -23.203125 "/></g></g></g></g></g><g clip-path="url(#92967ddabf)"><path fill="#d9d8c3" d="M 788.914062 1331.746094 C 784.371094 1308.386719 755.90625 1307.996094 748.886719 1329.832031 C 741.871094 1307.996094 713.40625 1308.386719 708.863281 1331.746094 C 704.742188 1352.9375 748.886719 1386.371094 748.886719 1386.371094 C 748.886719 1386.371094 793.03125 1352.9375 788.914062 1331.746094 Z M 788.914062 1331.746094 " fill-opacity="1" fill-rule="nonzero"/></g></svg>