<svg xmlns="http://www.w3.org/2000/svg" xmlns:xlink="http://www.w3.org/1999/xlink" width="2000" zoomAndPan="magnify" viewBox="0 0 1500 1499.999933" height="2000" preserveAspectRatio="xMidYMid meet" version="1.0"><defs><g/><clipPath id="56d37c4720"><rect x="0" width="512" y="0" height="423"/></clipPath><clipPath id="cda68e25ff"><rect x="0" width="382" y="0" height="452"/></clipPath></defs><g transform="matrix(1, 0, 0, 1, 496, 773)"><g clip-path="url(#56d37c4720)"><g fill="#d9d8c3" fill-opacity="1"><g transform="translate(1.809142, 313.079037)"><g><path d="M 127.65625 -222.65625 C 127.65625 -214.164062 126.875 -205.394531 125.3125 -196.34375 C 123.757812 -187.300781 121.003906 -178.890625 117.046875 -171.109375 C 113.085938 -163.335938 107.710938 -156.976562 100.921875 -152.03125 C 94.140625 -147.082031 85.519531 -144.609375 75.0625 -144.609375 L 47.078125 -144.609375 L 47.078125 -41.140625 C 47.078125 -30.109375 48.488281 -21.976562 51.3125 -16.75 C 54.144531 -11.519531 56.972656 -8.125 59.796875 -6.5625 C 62.617188 -5.007812 64.03125 -4.234375 64.03125 -4.234375 L 64.03125 0 L 3.390625 0 L 3.390625 -4.234375 C 3.953125 -4.523438 5.4375 -5.445312 7.84375 -7 C 10.25 -8.550781 12.722656 -11.519531 15.265625 -15.90625 C 17.804688 -20.289062 19.363281 -26.863281 19.9375 -35.625 L 19.9375 -267.171875 C 19.363281 -275.378906 17.734375 -281.25 15.046875 -284.78125 C 12.367188 -288.3125 9.753906 -290.5 7.203125 -291.34375 C 4.660156 -292.195312 3.390625 -292.625 3.390625 -292.625 L 3.390625 -296.859375 L 68.28125 -296.859375 C 79.59375 -296.859375 89.0625 -294.523438 96.6875 -289.859375 C 104.320312 -285.203125 110.332031 -279.125 114.71875 -271.625 C 119.101562 -264.132812 122.285156 -256.078125 124.265625 -247.453125 C 126.242188 -238.835938 127.375 -230.570312 127.65625 -222.65625 Z M 69.125 -152.25 C 76.476562 -152.25 82.34375 -154.929688 86.71875 -160.296875 C 91.101562 -165.671875 94.351562 -172.382812 96.46875 -180.4375 C 98.59375 -188.5 100.007812 -196.5625 100.71875 -204.625 C 101.425781 -212.6875 101.78125 -219.398438 101.78125 -224.765625 L 101.78125 -225.625 C 101.78125 -241.738281 99.941406 -254.175781 96.265625 -262.9375 C 92.585938 -271.695312 88.347656 -277.914062 83.546875 -281.59375 C 78.742188 -285.269531 74.503906 -287.53125 70.828125 -288.375 C 67.148438 -289.226562 65.3125 -289.65625 65.3125 -289.65625 L 47.078125 -289.65625 L 47.078125 -152.25 Z M 69.125 -152.25 "/></g></g></g><g fill="#d9d8c3" fill-opacity="1"><g transform="translate(118.85125, 313.079037)"><g><path d="M 3.390625 0 L 3.8125 -3.8125 C 3.8125 -3.8125 5.296875 -4.660156 8.265625 -6.359375 C 11.234375 -8.054688 14.484375 -11.519531 18.015625 -16.75 C 21.554688 -21.976562 23.890625 -30.109375 25.015625 -41.140625 L 60.21875 -255.734375 C 60.5 -257.421875 60.640625 -259.113281 60.640625 -260.8125 C 60.640625 -262.507812 60.640625 -264.066406 60.640625 -265.484375 C 60.640625 -273.960938 59.507812 -280.039062 57.25 -283.71875 C 54.988281 -287.394531 53.007812 -289.796875 51.3125 -290.921875 C 50.1875 -291.492188 49.128906 -291.988281 48.140625 -292.40625 C 47.148438 -292.832031 46.65625 -293.046875 46.65625 -293.046875 L 46.21875 -296.859375 L 106.453125 -296.859375 L 107.296875 -293.046875 C 107.296875 -293.046875 106.304688 -292.476562 104.328125 -291.34375 C 102.347656 -290.21875 100.367188 -287.957031 98.390625 -284.5625 C 96.410156 -281.175781 95.421875 -275.804688 95.421875 -268.453125 C 95.421875 -264.773438 95.84375 -260.535156 96.6875 -255.734375 C 102.90625 -219.828125 109.054688 -184.0625 115.140625 -148.4375 C 121.222656 -112.8125 127.375 -77.046875 133.59375 -41.140625 C 135.570312 -30.109375 138.328125 -21.976562 141.859375 -16.75 C 145.390625 -11.519531 148.707031 -8.054688 151.8125 -6.359375 C 154.925781 -4.660156 156.484375 -3.8125 156.484375 -3.8125 L 157.34375 0 L 98.390625 0 L 97.96875 -4.234375 C 97.96875 -4.234375 98.882812 -4.800781 100.71875 -5.9375 C 102.5625 -7.070312 104.398438 -9.40625 106.234375 -12.9375 C 108.066406 -16.46875 108.984375 -21.769531 108.984375 -28.84375 C 108.984375 -30.539062 108.984375 -32.519531 108.984375 -34.78125 C 108.984375 -37.039062 108.703125 -39.160156 108.140625 -41.140625 L 98.8125 -100.9375 L 44.953125 -100.9375 C 44.390625 -96.976562 43.398438 -91.039062 41.984375 -83.125 C 40.566406 -75.207031 39.222656 -67.21875 37.953125 -59.15625 C 36.679688 -51.101562 35.765625 -45.097656 35.203125 -41.140625 C 34.921875 -39.722656 34.78125 -38.238281 34.78125 -36.6875 C 34.78125 -35.132812 34.78125 -33.648438 34.78125 -32.234375 C 34.78125 -24.035156 35.910156 -17.882812 38.171875 -13.78125 C 40.429688 -9.6875 42.617188 -7 44.734375 -5.71875 C 46.859375 -4.445312 47.921875 -3.8125 47.921875 -3.8125 L 47.5 0 Z M 45.375 -110.265625 L 96.6875 -109.84375 L 69.96875 -259.96875 L 46.65625 -110.265625 Z M 45.375 -110.265625 "/></g></g></g><g fill="#d9d8c3" fill-opacity="1"><g transform="translate(265.578265, 313.079037)"><g><path d="M 125.109375 -222.65625 C 125.109375 -215.019531 124.398438 -206.75 122.984375 -197.84375 C 121.566406 -188.9375 119.09375 -180.523438 115.5625 -172.609375 C 112.03125 -164.691406 107.15625 -158.1875 100.9375 -153.09375 C 94.71875 -148.007812 86.660156 -145.46875 76.765625 -145.46875 L 50.890625 -145.890625 L 73.375 -134.015625 L 112.8125 -36.046875 C 117.050781 -25.867188 121.148438 -18.515625 125.109375 -13.984375 C 129.066406 -9.460938 132.242188 -6.707031 134.640625 -5.71875 C 137.046875 -4.726562 138.25 -4.234375 138.25 -4.234375 L 138.25 0 L 95.84375 0 L 47.078125 -137.40625 L 47.078125 -41.140625 C 47.078125 -30.109375 48.488281 -21.976562 51.3125 -16.75 C 54.144531 -11.519531 56.972656 -8.125 59.796875 -6.5625 C 62.617188 -5.007812 64.03125 -4.234375 64.03125 -4.234375 L 64.03125 0 L 3.390625 0 L 3.390625 -4.234375 C 3.953125 -4.523438 5.4375 -5.445312 7.84375 -7 C 10.25 -8.550781 12.722656 -11.519531 15.265625 -15.90625 C 17.804688 -20.289062 19.363281 -26.863281 19.9375 -35.625 L 19.9375 -267.171875 C 19.363281 -275.378906 17.734375 -281.25 15.046875 -284.78125 C 12.367188 -288.3125 9.753906 -290.5 7.203125 -291.34375 C 4.660156 -292.195312 3.390625 -292.625 3.390625 -292.625 L 3.390625 -296.859375 L 65.734375 -296.859375 C 77.046875 -296.859375 86.445312 -294.523438 93.9375 -289.859375 C 101.425781 -285.203125 107.429688 -279.125 111.953125 -271.625 C 116.484375 -264.132812 119.738281 -256.078125 121.71875 -247.453125 C 123.695312 -238.835938 124.828125 -230.570312 125.109375 -222.65625 Z M 66.15625 -152.25 C 73.507812 -152.25 79.375 -154.929688 83.75 -160.296875 C 88.132812 -165.671875 91.457031 -172.382812 93.71875 -180.4375 C 95.988281 -188.5 97.472656 -196.5625 98.171875 -204.625 C 98.878906 -212.6875 99.234375 -219.398438 99.234375 -224.765625 L 99.234375 -225.625 C 99.234375 -241.738281 97.394531 -254.175781 93.71875 -262.9375 C 90.050781 -271.695312 85.742188 -277.914062 80.796875 -281.59375 C 75.847656 -285.269531 71.535156 -287.53125 67.859375 -288.375 C 64.179688 -289.226562 62.34375 -289.65625 62.34375 -289.65625 L 47.078125 -289.65625 L 47.078125 -152.25 Z M 66.15625 -152.25 "/></g></g></g><g fill="#d9d8c3" fill-opacity="1"><g transform="translate(392.798013, 313.079037)"><g><path d="M 3.390625 -296.859375 L 109.84375 -296.859375 L 109.84375 -209.078125 L 103.90625 -209.078125 C 103.90625 -209.078125 103.832031 -211.757812 103.6875 -217.125 C 103.550781 -222.5 103.128906 -229.210938 102.421875 -237.265625 C 101.710938 -245.328125 100.648438 -253.316406 99.234375 -261.234375 C 97.828125 -269.148438 95.707031 -275.796875 92.875 -281.171875 C 90.050781 -286.546875 86.519531 -289.234375 82.28125 -289.234375 L 79.734375 -289.234375 C 77.472656 -287.253906 75.140625 -283.71875 72.734375 -278.625 C 70.328125 -273.539062 69.125 -265.910156 69.125 -255.734375 L 69.125 -41.140625 C 69.125 -30.109375 70.535156 -21.976562 73.359375 -16.75 C 76.191406 -11.519531 79.019531 -8.054688 81.84375 -6.359375 C 84.675781 -4.660156 86.09375 -3.8125 86.09375 -3.8125 L 86.09375 0 L 27.140625 0 L 27.140625 -3.8125 C 27.140625 -3.8125 28.550781 -4.660156 31.375 -6.359375 C 34.207031 -8.054688 37.035156 -11.519531 39.859375 -16.75 C 42.691406 -21.976562 44.109375 -30.109375 44.109375 -41.140625 L 44.109375 -255.734375 C 44.109375 -265.910156 42.90625 -273.539062 40.5 -278.625 C 38.09375 -283.71875 35.757812 -287.253906 33.5 -289.234375 L 30.953125 -289.234375 C 26.710938 -289.234375 23.175781 -286.546875 20.34375 -281.171875 C 17.519531 -275.796875 15.398438 -269.148438 13.984375 -261.234375 C 12.578125 -253.316406 11.519531 -245.328125 10.8125 -237.265625 C 10.101562 -229.210938 9.675781 -222.5 9.53125 -217.125 C 9.394531 -211.757812 9.328125 -209.078125 9.328125 -209.078125 L 3.390625 -209.078125 Z M 3.390625 -296.859375 "/></g></g></g></g></g><g transform="matrix(1, 0, 0, 1, 562, 301)"><g clip-path="url(#cda68e25ff)"><g fill="#d9d8c3" fill-opacity="1"><g transform="translate(0.911661, 337.607017)"><g><path d="M 3.609375 -315.890625 L 116.875 -315.890625 L 116.875 -222.484375 L 110.5625 -222.484375 C 110.5625 -222.484375 110.484375 -225.335938 110.328125 -231.046875 C 110.179688 -236.765625 109.734375 -243.910156 108.984375 -252.484375 C 108.234375 -261.066406 107.101562 -269.566406 105.59375 -277.984375 C 104.09375 -286.410156 101.835938 -293.484375 98.828125 -299.203125 C 95.816406 -304.921875 92.054688 -307.78125 87.546875 -307.78125 L 84.84375 -307.78125 C 82.4375 -305.664062 79.953125 -301.898438 77.390625 -296.484375 C 74.835938 -291.078125 73.5625 -282.957031 73.5625 -272.125 L 73.5625 -43.78125 C 73.5625 -32.039062 75.0625 -23.390625 78.0625 -17.828125 C 81.070312 -12.265625 84.082031 -8.578125 87.09375 -6.765625 C 90.101562 -4.960938 91.609375 -4.0625 91.609375 -4.0625 L 91.609375 0 L 28.875 0 L 28.875 -4.0625 C 28.875 -4.0625 30.378906 -4.960938 33.390625 -6.765625 C 36.398438 -8.578125 39.410156 -12.265625 42.421875 -17.828125 C 45.429688 -23.390625 46.9375 -32.039062 46.9375 -43.78125 L 46.9375 -272.125 C 46.9375 -282.957031 45.65625 -291.078125 43.09375 -296.484375 C 40.539062 -301.898438 38.0625 -305.664062 35.65625 -307.78125 L 32.9375 -307.78125 C 28.425781 -307.78125 24.664062 -304.921875 21.65625 -299.203125 C 18.65625 -293.484375 16.398438 -286.410156 14.890625 -277.984375 C 13.390625 -269.566406 12.257812 -261.066406 11.5 -252.484375 C 10.75 -243.910156 10.296875 -236.765625 10.140625 -231.046875 C 9.992188 -225.335938 9.921875 -222.484375 9.921875 -222.484375 L 3.609375 -222.484375 Z M 3.609375 -315.890625 "/></g></g></g><g fill="#d9d8c3" fill-opacity="1"><g transform="translate(106.508775, 337.607017)"><g><path d="M 149.375 -315.890625 L 149.375 -311.390625 C 149.375 -311.390625 147.867188 -310.859375 144.859375 -309.796875 C 141.847656 -308.742188 138.835938 -306.035156 135.828125 -301.671875 C 132.828125 -297.316406 131.328125 -290.023438 131.328125 -279.796875 L 131.328125 -36.109375 C 131.328125 -26.171875 132.828125 -18.945312 135.828125 -14.4375 C 138.835938 -9.925781 141.847656 -7.144531 144.859375 -6.09375 C 147.867188 -5.039062 149.375 -4.515625 149.375 -4.515625 L 149.375 0 L 84.84375 0 L 84.84375 -4.515625 C 84.84375 -4.515625 86.34375 -5.039062 89.34375 -6.09375 C 92.351562 -7.144531 95.363281 -9.851562 98.375 -14.21875 C 101.382812 -18.582031 102.890625 -25.878906 102.890625 -36.109375 L 102.890625 -194.953125 L 50.09375 -194.953125 L 50.09375 -36.109375 C 50.09375 -26.171875 51.597656 -18.945312 54.609375 -14.4375 C 57.617188 -9.925781 60.625 -7.144531 63.625 -6.09375 C 66.632812 -5.039062 68.140625 -4.515625 68.140625 -4.515625 L 68.140625 0 L 3.609375 0 L 3.609375 -4.515625 C 3.609375 -4.515625 5.113281 -5.039062 8.125 -6.09375 C 11.132812 -7.144531 14.140625 -9.851562 17.140625 -14.21875 C 20.148438 -18.582031 21.65625 -25.878906 21.65625 -36.109375 L 21.65625 -279.796875 C 21.65625 -290.023438 20.148438 -297.316406 17.140625 -301.671875 C 14.140625 -306.035156 11.132812 -308.742188 8.125 -309.796875 C 5.113281 -310.859375 3.609375 -311.390625 3.609375 -311.390625 L 3.609375 -315.890625 L 68.140625 -315.890625 L 68.140625 -311.390625 C 68.140625 -311.390625 66.632812 -310.859375 63.625 -309.796875 C 60.625 -308.742188 57.617188 -305.882812 54.609375 -301.21875 C 51.597656 -296.5625 50.09375 -288.664062 50.09375 -277.53125 L 50.09375 -203.078125 L 102.890625 -203.078125 L 102.890625 -279.796875 C 102.890625 -290.023438 101.382812 -297.316406 98.375 -301.671875 C 95.363281 -306.035156 92.351562 -308.742188 89.34375 -309.796875 C 86.34375 -310.859375 84.84375 -311.390625 84.84375 -311.390625 L 84.84375 -315.890625 Z M 149.375 -315.890625 "/></g></g></g><g fill="#d9d8c3" fill-opacity="1"><g transform="translate(244.597746, 337.607017)"><g><path d="M 126.8125 0 L 3.609375 0 L 3.609375 -4.515625 C 3.609375 -4.515625 5.113281 -5.34375 8.125 -7 C 11.132812 -8.65625 14.140625 -12.265625 17.140625 -17.828125 C 20.148438 -23.390625 21.65625 -32.039062 21.65625 -43.78125 L 21.65625 -272.125 C 21.65625 -284.457031 20.148438 -293.332031 17.140625 -298.75 C 14.140625 -304.164062 11.132812 -307.625 8.125 -309.125 C 5.113281 -310.632812 3.609375 -311.390625 3.609375 -311.390625 L 3.609375 -315.890625 L 126.8125 -315.890625 L 126.8125 -222.484375 L 120.484375 -222.484375 C 120.484375 -222.484375 120.410156 -225.335938 120.265625 -231.046875 C 120.117188 -236.765625 119.664062 -243.910156 118.90625 -252.484375 C 118.15625 -261.066406 117.023438 -269.566406 115.515625 -277.984375 C 114.015625 -286.410156 111.757812 -293.484375 108.75 -299.203125 C 105.75 -304.921875 101.992188 -307.78125 97.484375 -307.78125 L 50.09375 -307.78125 L 50.09375 -202.625 L 87.09375 -202.625 C 90.40625 -202.625 93.035156 -205.707031 94.984375 -211.875 C 96.941406 -218.039062 98.375 -225.109375 99.28125 -233.078125 C 100.1875 -241.054688 100.710938 -248.128906 100.859375 -254.296875 C 101.015625 -260.460938 101.09375 -263.546875 101.09375 -263.546875 L 107.40625 -263.546875 L 107.40625 -133.578125 L 101.09375 -133.578125 C 101.09375 -135.984375 101.015625 -140.421875 100.859375 -146.890625 C 100.710938 -153.359375 100.257812 -160.273438 99.5 -167.640625 C 98.75 -175.015625 97.394531 -181.332031 95.4375 -186.59375 C 93.488281 -191.863281 90.859375 -194.5 87.546875 -194.5 L 50.09375 -194.5 L 50.09375 -8.125 L 97.484375 -8.125 C 101.992188 -8.125 105.75 -10.976562 108.75 -16.6875 C 111.757812 -22.40625 114.015625 -29.476562 115.515625 -37.90625 C 117.023438 -46.332031 118.15625 -54.832031 118.90625 -63.40625 C 119.664062 -71.976562 120.117188 -79.125 120.265625 -84.84375 C 120.410156 -90.5625 120.484375 -93.421875 120.484375 -93.421875 L 126.8125 -93.421875 Z M 126.8125 0 "/></g></g></g></g></g><g fill="#d9d8c3" fill-opacity="1"><g transform="translate(460.063418, 792.402536)"><g><path d="M 161.6875 -110.609375 C 161.488281 -111.273438 161.242188 -112.007812 160.953125 -112.8125 C 160.671875 -113.613281 160.484375 -114.425781 160.390625 -115.25 C 160.015625 -118.9375 160.9375 -123.453125 163.15625 -128.796875 C 163.363281 -129.367188 163.671875 -130.019531 164.078125 -130.75 C 164.492188 -131.488281 164.738281 -132.132812 164.8125 -132.6875 L 167.5 -136.890625 C 169.175781 -139.410156 171.429688 -142.335938 174.265625 -145.671875 C 177.109375 -149.003906 180.328125 -151.957031 183.921875 -154.53125 C 184.960938 -155.195312 186.097656 -155.59375 187.328125 -155.71875 C 189.515625 -155.945312 191.082031 -155.484375 192.03125 -154.328125 C 192.5 -153.828125 192.785156 -153.023438 192.890625 -151.921875 C 193.015625 -150.703125 192.664062 -149.390625 191.84375 -147.984375 C 191.019531 -146.585938 189.484375 -145.425781 187.234375 -144.5 C 186.023438 -144.113281 184.113281 -143.160156 181.5 -141.640625 C 178.894531 -140.128906 176.25 -137.992188 173.5625 -135.234375 C 170.882812 -132.472656 168.726562 -128.941406 167.09375 -124.640625 C 165.945312 -121.066406 165.5 -118.046875 165.75 -115.578125 C 165.832031 -114.765625 166.066406 -113.820312 166.453125 -112.75 C 167.148438 -111.3125 167.976562 -110.296875 168.9375 -109.703125 C 169.894531 -109.109375 170.597656 -108.691406 171.046875 -108.453125 C 171.179688 -108.472656 171.847656 -108.300781 173.046875 -107.9375 C 174.253906 -107.570312 176.09375 -107.519531 178.5625 -107.78125 C 181.570312 -108.082031 185.394531 -109.195312 190.03125 -111.125 C 194.664062 -113.050781 200.179688 -116.484375 206.578125 -121.421875 C 212.984375 -126.367188 220.210938 -133.394531 228.265625 -142.5 C 238.148438 -153.726562 245.328125 -164.890625 249.796875 -175.984375 C 254.265625 -187.078125 256.113281 -196.382812 255.34375 -203.90625 C 255.101562 -206.226562 254.519531 -208.515625 253.59375 -210.765625 C 249.570312 -219.046875 240.863281 -222.503906 227.46875 -221.140625 C 219.539062 -220.328125 211.398438 -217.835938 203.046875 -213.671875 C 194.703125 -209.503906 186.484375 -204.140625 178.390625 -197.578125 C 170.296875 -191.015625 162.519531 -183.660156 155.0625 -175.515625 C 147.601562 -167.367188 140.734375 -158.863281 134.453125 -150 C 128.179688 -141.132812 122.722656 -132.382812 118.078125 -123.75 C 116.109375 -120.113281 114.234375 -116.203125 112.453125 -112.015625 C 110.671875 -107.828125 109.035156 -103.515625 107.546875 -99.078125 C 116.734375 -98.347656 124.898438 -96.832031 132.046875 -94.53125 C 139.191406 -92.226562 144.835938 -90.039062 148.984375 -87.96875 C 153.140625 -85.90625 155.222656 -84.804688 155.234375 -84.671875 C 155.859375 -83.921875 156.191406 -83.335938 156.234375 -82.921875 C 156.304688 -82.234375 156.097656 -81.582031 155.609375 -80.96875 C 155.234375 -80.53125 154.703125 -80.273438 154.015625 -80.203125 C 153.335938 -80.140625 152.632812 -80.269531 151.90625 -80.59375 C 147.707031 -82.519531 143.332031 -84.457031 138.78125 -86.40625 C 134.238281 -88.351562 127.957031 -90.023438 119.9375 -91.421875 C 117.675781 -91.867188 115.359375 -92.21875 112.984375 -92.46875 C 110.617188 -92.71875 108.125 -92.84375 105.5 -92.84375 C 102.925781 -84.300781 101.078125 -75.722656 99.953125 -67.109375 C 98.828125 -58.492188 98.632812 -50.566406 99.375 -43.328125 C 100.238281 -34.847656 102.472656 -27.820312 106.078125 -22.25 C 108.867188 -17.96875 112.472656 -15.1875 116.890625 -13.90625 C 121.304688 -12.632812 125.015625 -12.15625 128.015625 -12.46875 C 137.710938 -13.457031 147.082031 -16.347656 156.125 -21.140625 C 165.175781 -25.941406 173.691406 -31.820312 181.671875 -38.78125 C 189.660156 -45.75 196.960938 -53.054688 203.578125 -60.703125 C 210.191406 -68.359375 215.882812 -75.503906 220.65625 -82.140625 C 225.425781 -88.785156 229.144531 -94.242188 231.8125 -98.515625 C 234.476562 -102.796875 235.878906 -105.007812 236.015625 -105.15625 C 236.015625 -105.15625 236.734375 -106.234375 238.171875 -108.390625 C 239.609375 -110.546875 241.195312 -112.601562 242.9375 -114.5625 C 244.394531 -116.363281 245.265625 -117.28125 245.546875 -117.3125 C 245.796875 -117.625 246.257812 -117.816406 246.9375 -117.890625 C 248.039062 -117.992188 248.757812 -117.722656 249.09375 -117.078125 C 249.382812 -116.828125 249.570312 -116.289062 249.65625 -115.46875 C 249.757812 -114.519531 249.492188 -113.800781 248.859375 -113.3125 C 248.859375 -113.3125 247.984375 -112.046875 246.234375 -109.515625 C 244.492188 -106.992188 242.5 -103.203125 240.25 -98.140625 C 238.457031 -94.097656 237.09375 -89.882812 236.15625 -85.5 C 235.226562 -81.125 234.015625 -76.785156 232.515625 -72.484375 C 226.628906 -50.472656 219.820312 -31.644531 212.09375 -16 C 204.363281 -0.351562 196.1875 12.601562 187.5625 22.875 C 178.945312 33.144531 170.191406 41.359375 161.296875 47.515625 C 152.398438 53.679688 143.757812 58.332031 135.375 61.46875 C 127 64.601562 119.210938 66.773438 112.015625 67.984375 C 104.816406 69.203125 98.617188 70.078125 93.421875 70.609375 C 79.078125 72.078125 65.765625 70.882812 53.484375 67.03125 C 41.203125 63.1875 30.710938 57.25 22.015625 49.21875 C 13.328125 41.195312 7.25 31.707031 3.78125 20.75 C 2.945312 17.9375 2.25 15.140625 1.6875 12.359375 C 1.125 9.585938 0.695312 6.769531 0.40625 3.90625 C -0.726562 -7.175781 0.117188 -18.109375 2.953125 -28.890625 C 5.785156 -39.679688 10.390625 -49.6875 16.765625 -58.90625 C 23.140625 -68.125 30.984375 -75.832031 40.296875 -82.03125 C 48.328125 -87.269531 56.285156 -91.1875 64.171875 -93.78125 C 72.054688 -96.382812 79.6875 -98.066406 87.0625 -98.828125 L 88.484375 -98.96875 C 89.953125 -103.539062 91.597656 -108.023438 93.421875 -112.421875 C 95.253906 -116.828125 97.222656 -120.929688 99.328125 -124.734375 C 105.953125 -137.015625 113.882812 -148.945312 123.125 -160.53125 C 132.375 -172.125 142.554688 -182.628906 153.671875 -192.046875 C 164.796875 -201.472656 176.570312 -209.238281 189 -215.34375 C 201.4375 -221.457031 214.078125 -225.171875 226.921875 -226.484375 C 234.984375 -227.304688 242.460938 -226.410156 249.359375 -223.796875 C 256.265625 -221.191406 261.191406 -216.929688 264.140625 -211.015625 C 266.203125 -207.085938 267.472656 -202.796875 267.953125 -198.140625 C 268.816406 -189.671875 267.175781 -180.351562 263.03125 -170.1875 C 258.894531 -160.019531 252.550781 -150.082031 244 -140.375 C 235.738281 -130.832031 227.832031 -123.425781 220.28125 -118.15625 C 212.738281 -112.894531 205.800781 -109.144531 199.46875 -106.90625 C 193.144531 -104.675781 187.65625 -103.320312 183 -102.84375 C 178.757812 -102.414062 175.441406 -102.421875 173.046875 -102.859375 C 170.648438 -103.304688 169.382812 -103.523438 169.25 -103.515625 C 168.550781 -103.710938 167.378906 -104.347656 165.734375 -105.421875 C 164.097656 -106.503906 162.75 -108.234375 161.6875 -110.609375 Z M 127.515625 -5.390625 C 122.859375 -4.910156 118.039062 -5.035156 113.0625 -5.765625 C 108.082031 -6.492188 103.519531 -7.890625 99.375 -9.953125 C 95.226562 -12.015625 92.015625 -14.726562 89.734375 -18.09375 C 87.585938 -21.457031 85.84375 -25.285156 84.5 -29.578125 C 83.164062 -33.867188 82.242188 -38.539062 81.734375 -43.59375 C 80.992188 -50.84375 81.0625 -58.617188 81.9375 -66.921875 C 82.820312 -75.234375 84.359375 -83.507812 86.546875 -91.75 C 79.316406 -90.875 72.191406 -89.28125 65.171875 -86.96875 C 58.160156 -84.65625 51.804688 -81.617188 46.109375 -77.859375 C 37.441406 -72.128906 30.265625 -64.96875 24.578125 -56.375 C 18.898438 -47.789062 14.804688 -38.535156 12.296875 -28.609375 C 9.796875 -18.679688 9.066406 -8.59375 10.109375 1.65625 C 10.410156 4.539062 10.835938 7.363281 11.390625 10.125 C 11.953125 12.894531 12.65625 15.6875 13.5 18.5 C 16.757812 28.800781 22.347656 37.207031 30.265625 43.71875 C 38.191406 50.238281 47.8125 54.816406 59.125 57.453125 C 70.445312 60.085938 82.816406 60.789062 96.234375 59.5625 C 103.484375 58.820312 111.484375 56.722656 120.234375 53.265625 C 128.992188 49.816406 137.890625 44.96875 146.921875 38.71875 C 155.960938 32.476562 164.367188 24.820312 172.140625 15.75 C 175.460938 11.820312 179.675781 6.453125 184.78125 -0.359375 C 189.882812 -7.171875 195.21875 -15.070312 200.78125 -24.0625 C 206.351562 -33.0625 211.675781 -42.796875 216.75 -53.265625 C 221.832031 -63.734375 226.097656 -74.453125 229.546875 -85.421875 C 225.941406 -80.085938 221.507812 -74.078125 216.25 -67.390625 C 211 -60.710938 205.132812 -53.929688 198.65625 -47.046875 C 192.175781 -40.171875 185.128906 -33.753906 177.515625 -27.796875 C 169.910156 -21.835938 161.894531 -16.835938 153.46875 -12.796875 C 145.039062 -8.765625 136.390625 -6.296875 127.515625 -5.390625 Z M 127.515625 -5.390625 "/></g></g></g><g fill="#d9d8c3" fill-opacity="1"><g transform="translate(714.336307, 766.382728)"><g><path d="M 115.25 -92.796875 C 116.238281 -92.484375 116.789062 -91.785156 116.90625 -90.703125 C 116.957031 -90.148438 116.929688 -89.726562 116.828125 -89.4375 C 114.273438 -83.25 110.863281 -78.101562 106.59375 -74 C 102.320312 -69.894531 97.601562 -66.75 92.4375 -64.5625 C 87.269531 -62.382812 82.085938 -61.03125 76.890625 -60.5 L 74.4375 -60.25 C 73.601562 -57.539062 72.632812 -54.816406 71.53125 -52.078125 C 70.425781 -49.335938 69.195312 -46.519531 67.84375 -43.625 C 62.269531 -32 55.609375 -22.507812 47.859375 -15.15625 C 40.117188 -7.800781 32.367188 -3.585938 24.609375 -2.515625 L 22.75 -2.328125 C 17.007812 -1.742188 12.332031 -2.578125 8.71875 -4.828125 C 5.113281 -7.078125 2.421875 -10.113281 0.640625 -13.9375 C -1.128906 -17.757812 -2.210938 -21.585938 -2.609375 -25.421875 C -2.671875 -26.109375 -2.734375 -26.757812 -2.796875 -27.375 C -2.859375 -27.988281 -2.851562 -28.570312 -2.78125 -29.125 C -2.707031 -35.21875 -1.851562 -41.765625 -0.21875 -48.765625 C 1.40625 -55.773438 3.9375 -62.703125 7.375 -69.546875 C 14.632812 -83.828125 22.320312 -94.109375 30.4375 -100.390625 C 38.5625 -106.679688 46.378906 -110.210938 53.890625 -110.984375 L 56.171875 -111.21875 C 56.984375 -111.300781 58.472656 -111.242188 60.640625 -111.046875 C 62.804688 -110.847656 65.15625 -110.15625 67.6875 -108.96875 C 70.226562 -107.78125 72.46875 -105.800781 74.40625 -103.03125 C 76.351562 -100.257812 77.59375 -96.273438 78.125 -91.078125 C 78.207031 -90.265625 78.257812 -89.40625 78.28125 -88.5 C 78.300781 -87.601562 78.304688 -86.535156 78.296875 -85.296875 C 78.328125 -82.253906 78.164062 -79.09375 77.8125 -75.8125 C 77.457031 -72.53125 76.972656 -69.132812 76.359375 -65.625 C 83.203125 -66.332031 90.003906 -68.753906 96.765625 -72.890625 C 103.523438 -77.023438 108.554688 -83.207031 111.859375 -91.4375 C 112.191406 -92.289062 112.898438 -92.769531 113.984375 -92.875 C 114.535156 -92.9375 114.957031 -92.910156 115.25 -92.796875 Z M 72.875 -83.5 C 72.925781 -84.46875 72.929688 -85.46875 72.890625 -86.5 C 72.859375 -87.53125 72.789062 -88.523438 72.6875 -89.484375 C 72.550781 -90.847656 72.335938 -92.242188 72.046875 -93.671875 C 71.765625 -95.097656 71.28125 -96.460938 70.59375 -97.765625 C 69.175781 -100.796875 67.257812 -102.640625 64.84375 -103.296875 C 62.4375 -103.953125 60.34375 -104.1875 58.5625 -104 C 58.15625 -103.96875 57.785156 -103.898438 57.453125 -103.796875 C 57.117188 -103.691406 56.8125 -103.625 56.53125 -103.59375 C 52.363281 -102.46875 49.539062 -100.34375 48.0625 -97.21875 C 46.59375 -94.101562 45.882812 -90.957031 45.9375 -87.78125 L 46.09375 -86.140625 C 46.570312 -81.492188 48.6875 -77.046875 52.4375 -72.796875 C 56.1875 -68.554688 61.472656 -66.164062 68.296875 -65.625 L 70.375 -65.421875 C 71.925781 -71.804688 72.757812 -77.832031 72.875 -83.5 Z M 63.265625 -45.828125 C 64.398438 -48.304688 65.425781 -50.765625 66.34375 -53.203125 C 67.269531 -55.640625 68.101562 -58 68.84375 -60.28125 C 68.695312 -60.269531 68.550781 -60.289062 68.40625 -60.34375 C 68.269531 -60.40625 68.066406 -60.421875 67.796875 -60.390625 C 59.703125 -61.085938 53.359375 -63.992188 48.765625 -69.109375 C 44.171875 -74.234375 41.570312 -79.734375 40.96875 -85.609375 L 40.765625 -87.65625 C 40.773438 -88.78125 40.804688 -89.789062 40.859375 -90.6875 C 40.910156 -91.582031 41.03125 -92.457031 41.21875 -93.3125 C 34.570312 -86.6875 28.867188 -78.296875 24.109375 -68.140625 C 21.054688 -61.609375 18.445312 -55.054688 16.28125 -48.484375 C 14.113281 -41.921875 13.046875 -35.804688 13.078125 -30.140625 C 13.023438 -29.304688 13.035156 -28.507812 13.109375 -27.75 C 13.191406 -27 13.269531 -26.28125 13.34375 -25.59375 C 13.769531 -21.363281 14.882812 -17.851562 16.6875 -15.0625 C 18.488281 -12.28125 21.132812 -10.722656 24.625 -10.390625 C 25.1875 -10.304688 25.945312 -10.3125 26.90625 -10.40625 C 30.457031 -10.769531 34.421875 -12.523438 38.796875 -15.671875 C 43.171875 -18.828125 47.539062 -23.007812 51.90625 -28.21875 C 56.28125 -33.425781 60.066406 -39.296875 63.265625 -45.828125 Z M 63.265625 -45.828125 "/></g></g></g><g fill="#d9d8c3" fill-opacity="1"><g transform="translate(805.177373, 757.086939)"><g><path d="M 115.25 -92.796875 C 116.238281 -92.484375 116.789062 -91.785156 116.90625 -90.703125 C 116.957031 -90.148438 116.929688 -89.726562 116.828125 -89.4375 C 114.273438 -83.25 110.863281 -78.101562 106.59375 -74 C 102.320312 -69.894531 97.601562 -66.75 92.4375 -64.5625 C 87.269531 -62.382812 82.085938 -61.03125 76.890625 -60.5 L 74.4375 -60.25 C 73.601562 -57.539062 72.632812 -54.816406 71.53125 -52.078125 C 70.425781 -49.335938 69.195312 -46.519531 67.84375 -43.625 C 62.269531 -32 55.609375 -22.507812 47.859375 -15.15625 C 40.117188 -7.800781 32.367188 -3.585938 24.609375 -2.515625 L 22.75 -2.328125 C 17.007812 -1.742188 12.332031 -2.578125 8.71875 -4.828125 C 5.113281 -7.078125 2.421875 -10.113281 0.640625 -13.9375 C -1.128906 -17.757812 -2.210938 -21.585938 -2.609375 -25.421875 C -2.671875 -26.109375 -2.734375 -26.757812 -2.796875 -27.375 C -2.859375 -27.988281 -2.851562 -28.570312 -2.78125 -29.125 C -2.707031 -35.21875 -1.851562 -41.765625 -0.21875 -48.765625 C 1.40625 -55.773438 3.9375 -62.703125 7.375 -69.546875 C 14.632812 -83.828125 22.320312 -94.109375 30.4375 -100.390625 C 38.5625 -106.679688 46.378906 -110.210938 53.890625 -110.984375 L 56.171875 -111.21875 C 56.984375 -111.300781 58.472656 -111.242188 60.640625 -111.046875 C 62.804688 -110.847656 65.15625 -110.15625 67.6875 -108.96875 C 70.226562 -107.78125 72.46875 -105.800781 74.40625 -103.03125 C 76.351562 -100.257812 77.59375 -96.273438 78.125 -91.078125 C 78.207031 -90.265625 78.257812 -89.40625 78.28125 -88.5 C 78.300781 -87.601562 78.304688 -86.535156 78.296875 -85.296875 C 78.328125 -82.253906 78.164062 -79.09375 77.8125 -75.8125 C 77.457031 -72.53125 76.972656 -69.132812 76.359375 -65.625 C 83.203125 -66.332031 90.003906 -68.753906 96.765625 -72.890625 C 103.523438 -77.023438 108.554688 -83.207031 111.859375 -91.4375 C 112.191406 -92.289062 112.898438 -92.769531 113.984375 -92.875 C 114.535156 -92.9375 114.957031 -92.910156 115.25 -92.796875 Z M 72.875 -83.5 C 72.925781 -84.46875 72.929688 -85.46875 72.890625 -86.5 C 72.859375 -87.53125 72.789062 -88.523438 72.6875 -89.484375 C 72.550781 -90.847656 72.335938 -92.242188 72.046875 -93.671875 C 71.765625 -95.097656 71.28125 -96.460938 70.59375 -97.765625 C 69.175781 -100.796875 67.257812 -102.640625 64.84375 -103.296875 C 62.4375 -103.953125 60.34375 -104.1875 58.5625 -104 C 58.15625 -103.96875 57.785156 -103.898438 57.453125 -103.796875 C 57.117188 -103.691406 56.8125 -103.625 56.53125 -103.59375 C 52.363281 -102.46875 49.539062 -100.34375 48.0625 -97.21875 C 46.59375 -94.101562 45.882812 -90.957031 45.9375 -87.78125 L 46.09375 -86.140625 C 46.570312 -81.492188 48.6875 -77.046875 52.4375 -72.796875 C 56.1875 -68.554688 61.472656 -66.164062 68.296875 -65.625 L 70.375 -65.421875 C 71.925781 -71.804688 72.757812 -77.832031 72.875 -83.5 Z M 63.265625 -45.828125 C 64.398438 -48.304688 65.425781 -50.765625 66.34375 -53.203125 C 67.269531 -55.640625 68.101562 -58 68.84375 -60.28125 C 68.695312 -60.269531 68.550781 -60.289062 68.40625 -60.34375 C 68.269531 -60.40625 68.066406 -60.421875 67.796875 -60.390625 C 59.703125 -61.085938 53.359375 -63.992188 48.765625 -69.109375 C 44.171875 -74.234375 41.570312 -79.734375 40.96875 -85.609375 L 40.765625 -87.65625 C 40.773438 -88.78125 40.804688 -89.789062 40.859375 -90.6875 C 40.910156 -91.582031 41.03125 -92.457031 41.21875 -93.3125 C 34.570312 -86.6875 28.867188 -78.296875 24.109375 -68.140625 C 21.054688 -61.609375 18.445312 -55.054688 16.28125 -48.484375 C 14.113281 -41.921875 13.046875 -35.804688 13.078125 -30.140625 C 13.023438 -29.304688 13.035156 -28.507812 13.109375 -27.75 C 13.191406 -27 13.269531 -26.28125 13.34375 -25.59375 C 13.769531 -21.363281 14.882812 -17.851562 16.6875 -15.0625 C 18.488281 -12.28125 21.132812 -10.722656 24.625 -10.390625 C 25.1875 -10.304688 25.945312 -10.3125 26.90625 -10.40625 C 30.457031 -10.769531 34.421875 -12.523438 38.796875 -15.671875 C 43.171875 -18.828125 47.539062 -23.007812 51.90625 -28.21875 C 56.28125 -33.425781 60.066406 -39.296875 63.265625 -45.828125 Z M 63.265625 -45.828125 "/></g></g></g><g fill="#d9d8c3" fill-opacity="1"><g transform="translate(896.018417, 747.791152)"><g><path d="M 116.40625 -63.078125 C 117.4375 -62.492188 118 -61.726562 118.09375 -60.78125 C 118.125 -60.507812 118.03125 -60.082031 117.8125 -59.5 C 115.25 -53.570312 112.46875 -47.660156 109.46875 -41.765625 C 106.476562 -35.867188 103.269531 -30.429688 99.84375 -25.453125 C 96.414062 -20.472656 92.617188 -16.382812 88.453125 -13.1875 C 84.296875 -10 79.757812 -8.15625 74.84375 -7.65625 C 68.144531 -6.96875 62.5625 -8.15625 58.09375 -11.21875 C 53.632812 -14.289062 51.070312 -19.109375 50.40625 -25.671875 C 50.351562 -26.222656 50.332031 -26.738281 50.34375 -27.21875 C 50.363281 -27.695312 50.347656 -28.210938 50.296875 -28.765625 C 45.835938 -21.128906 41.117188 -14.945312 36.140625 -10.21875 C 31.171875 -5.5 26.019531 -2.867188 20.6875 -2.328125 L 19.875 -2.234375 C 14.957031 -1.734375 10.914062 -2.425781 7.75 -4.3125 C 4.582031 -6.195312 2.207031 -8.785156 0.625 -12.078125 C -0.945312 -15.367188 -1.925781 -18.859375 -2.3125 -22.546875 C -2.394531 -23.367188 -2.476562 -24.191406 -2.5625 -25.015625 C -2.644531 -25.835938 -2.65625 -26.597656 -2.59375 -27.296875 C -2.363281 -33.253906 -1.363281 -39.671875 0.40625 -46.546875 C 2.1875 -53.429688 4.734375 -60.289062 8.046875 -67.125 C 13.171875 -77.726562 18.28125 -86.15625 23.375 -92.40625 C 28.46875 -98.664062 33.457031 -103.21875 38.34375 -106.0625 C 43.238281 -108.914062 47.804688 -110.5625 52.046875 -111 C 53.816406 -111.175781 55.507812 -111.171875 57.125 -110.984375 C 58.738281 -110.804688 60.253906 -110.519531 61.671875 -110.125 C 64.648438 -109.320312 66.890625 -107.648438 68.390625 -105.109375 C 69.890625 -102.566406 70.832031 -99.453125 71.21875 -95.765625 C 71.425781 -93.710938 71.460938 -91.296875 71.328125 -88.515625 L 105.546875 -167.234375 L 123.171875 -169.03125 L 72.234375 -53.40625 C 69.679688 -47.34375 67.578125 -41.941406 65.921875 -37.203125 C 64.265625 -32.472656 63.660156 -27.921875 64.109375 -23.546875 C 64.304688 -21.628906 65.097656 -19.640625 66.484375 -17.578125 C 67.867188 -15.515625 70.085938 -14.359375 73.140625 -14.109375 C 73.566406 -14.015625 74.328125 -14.023438 75.421875 -14.140625 C 77.734375 -14.378906 80.328125 -15.300781 83.203125 -16.90625 C 86.085938 -18.519531 89.066406 -21.207031 92.140625 -24.96875 C 96.097656 -29.382812 99.785156 -34.804688 103.203125 -41.234375 C 106.617188 -47.660156 109.894531 -54.484375 113.03125 -61.703125 C 113.351562 -62.566406 114.066406 -63.054688 115.171875 -63.171875 C 115.703125 -63.234375 116.113281 -63.203125 116.40625 -63.078125 Z M 33.421875 -15.4375 C 37.109375 -18.582031 40.640625 -22.878906 44.015625 -28.328125 C 47.398438 -33.785156 50.664062 -40.0625 53.8125 -47.15625 C 54.351562 -48.601562 54.898438 -50.003906 55.453125 -51.359375 C 56.003906 -52.722656 56.550781 -54.128906 57.09375 -55.578125 L 57.9375 -57.53125 C 60.632812 -64.84375 62.710938 -71.820312 64.171875 -78.46875 C 65.640625 -85.113281 66.144531 -90.691406 65.6875 -95.203125 C 65.175781 -100.117188 63.398438 -103.25 60.359375 -104.59375 C 59.191406 -105.164062 57.925781 -105.378906 56.5625 -105.234375 C 53.414062 -104.921875 49.925781 -102.875 46.09375 -99.09375 C 42.269531 -95.320312 38.515625 -90.519531 34.828125 -84.6875 C 31.148438 -78.851562 27.785156 -72.671875 24.734375 -66.140625 C 21.679688 -59.472656 19.140625 -52.894531 17.109375 -46.40625 C 15.085938 -39.914062 13.953125 -33.820312 13.703125 -28.125 C 13.660156 -27.15625 13.65625 -26.191406 13.6875 -25.234375 C 13.71875 -24.273438 13.78125 -23.3125 13.875 -22.34375 C 14.3125 -18.101562 15.425781 -14.96875 17.21875 -12.9375 C 19.007812 -10.914062 21.207031 -10.035156 23.8125 -10.296875 C 26.945312 -10.617188 30.148438 -12.332031 33.421875 -15.4375 Z M 33.421875 -15.4375 "/></g></g></g><path fill="#d9d8c3" d="M 775.878906 1135.574219 C 772.859375 1120.035156 753.925781 1119.777344 749.257812 1134.300781 C 744.589844 1119.777344 725.65625 1120.035156 722.636719 1135.574219 C 719.898438 1149.667969 749.257812 1171.90625 749.257812 1171.90625 C 749.257812 1171.90625 778.621094 1149.667969 775.878906 1135.574219 Z M 775.878906 1135.574219 " fill-opacity="1" fill-rule="nonzero"/></svg>