<svg xmlns="http://www.w3.org/2000/svg" xmlns:xlink="http://www.w3.org/1999/xlink" width="2000" zoomAndPan="magnify" viewBox="0 0 1500 1499.999933" height="2000" preserveAspectRatio="xMidYMid meet" version="1.0"><defs><g/><clipPath id="8598919c7b"><rect x="0" width="878" y="0" height="1154"/></clipPath><clipPath id="8ca6972aab"><rect x="0" width="954" y="0" height="1114"/></clipPath><clipPath id="5a90c6ea88"><rect x="0" width="1248" y="0" height="1500"/></clipPath></defs><rect x="-150" width="1800" fill="#ffffff" y="-149.999993" height="1799.99992" fill-opacity="1"/><rect x="-150" width="1800" fill="#ffffff" y="-149.999993" height="1799.99992" fill-opacity="1"/><g transform="matrix(1, 0, 0, 1, 174, 0.000000000000112861)"><g clip-path="url(#5a90c6ea88)"><g transform="matrix(1, 0, 0, 1, 0, 0.000000000000112861)"><g clip-path="url(#8598919c7b)"><g fill="#d9d8c3" fill-opacity="1"><g transform="translate(64.207476, 642.188852)"><g><path d="M 426.6875 -291.90625 C 426.132812 -293.664062 425.476562 -295.597656 424.71875 -297.703125 C 423.957031 -299.816406 423.46875 -301.957031 423.25 -304.125 C 422.25 -313.863281 424.675781 -325.773438 430.53125 -339.859375 C 431.101562 -341.378906 431.925781 -343.101562 433 -345.03125 C 434.070312 -346.957031 434.71875 -348.664062 434.9375 -350.15625 L 442 -361.25 C 446.4375 -367.90625 452.394531 -375.625 459.875 -384.40625 C 467.351562 -393.195312 475.847656 -400.992188 485.359375 -407.796875 C 488.097656 -409.535156 491.09375 -410.570312 494.34375 -410.90625 C 500.113281 -411.5 504.242188 -410.28125 506.734375 -407.25 C 507.972656 -405.925781 508.738281 -403.816406 509.03125 -400.921875 C 509.363281 -397.679688 508.441406 -394.21875 506.265625 -390.53125 C 504.085938 -386.84375 500.023438 -383.78125 494.078125 -381.34375 C 490.898438 -380.300781 485.867188 -377.785156 478.984375 -373.796875 C 472.109375 -369.804688 465.125 -364.171875 458.03125 -356.890625 C 450.945312 -349.609375 445.253906 -340.273438 440.953125 -328.890625 C 437.898438 -319.472656 436.707031 -311.519531 437.375 -305.03125 C 437.59375 -302.863281 438.210938 -300.367188 439.234375 -297.546875 C 441.085938 -293.722656 443.273438 -291.03125 445.796875 -289.46875 C 448.316406 -287.90625 450.160156 -286.816406 451.328125 -286.203125 C 451.691406 -286.234375 453.46875 -285.78125 456.65625 -284.84375 C 459.851562 -283.90625 464.695312 -283.765625 471.1875 -284.421875 C 479.125 -285.234375 489.210938 -288.175781 501.453125 -293.25 C 513.703125 -298.332031 528.269531 -307.390625 545.15625 -320.421875 C 562.039062 -333.453125 581.101562 -351.988281 602.34375 -376.03125 C 628.46875 -405.675781 647.414062 -435.132812 659.1875 -464.40625 C 670.957031 -493.6875 675.828125 -518.25 673.796875 -538.09375 C 673.160156 -544.21875 671.625 -550.25 669.1875 -556.1875 C 658.582031 -578.0625 635.597656 -587.191406 600.234375 -583.578125 C 579.316406 -581.441406 557.847656 -574.875 535.828125 -563.875 C 513.804688 -552.875 492.109375 -538.71875 470.734375 -521.40625 C 449.359375 -504.09375 428.832031 -484.675781 409.15625 -463.15625 C 389.488281 -441.632812 371.375 -419.1875 354.8125 -395.8125 C 338.25 -372.4375 323.84375 -349.363281 311.59375 -326.59375 C 306.394531 -316.945312 301.441406 -306.59375 296.734375 -295.53125 C 292.035156 -284.476562 287.726562 -273.109375 283.8125 -261.421875 C 308.070312 -259.523438 329.625 -255.53125 348.46875 -249.4375 C 367.3125 -243.351562 382.207031 -237.585938 393.15625 -232.140625 C 404.101562 -226.703125 409.59375 -223.804688 409.625 -223.453125 C 411.300781 -221.429688 412.191406 -219.875 412.296875 -218.78125 C 412.484375 -216.976562 411.925781 -215.285156 410.625 -213.703125 C 409.65625 -212.515625 408.269531 -211.832031 406.46875 -211.65625 C 404.664062 -211.46875 402.804688 -211.816406 400.890625 -212.703125 C 389.796875 -217.765625 378.242188 -222.867188 366.234375 -228.015625 C 354.234375 -233.171875 337.65625 -237.582031 316.5 -241.25 C 310.550781 -242.46875 304.441406 -243.394531 298.171875 -244.03125 C 291.910156 -244.664062 285.316406 -244.992188 278.390625 -245.015625 C 271.578125 -222.441406 266.691406 -199.789062 263.734375 -177.0625 C 260.773438 -154.34375 260.273438 -133.425781 262.234375 -114.3125 C 264.523438 -91.945312 270.429688 -73.414062 279.953125 -58.71875 C 287.296875 -47.4375 296.789062 -40.113281 308.4375 -36.75 C 320.09375 -33.394531 329.890625 -32.125 337.828125 -32.9375 C 363.429688 -35.5625 388.160156 -43.191406 412.015625 -55.828125 C 435.867188 -68.472656 458.335938 -83.984375 479.421875 -102.359375 C 500.515625 -120.734375 519.78125 -140.015625 537.21875 -160.203125 C 554.65625 -180.398438 569.675781 -199.253906 582.28125 -216.765625 C 594.882812 -234.285156 604.707031 -248.691406 611.75 -259.984375 C 618.789062 -271.273438 622.476562 -277.113281 622.8125 -277.5 C 622.8125 -277.5 624.707031 -280.335938 628.5 -286.015625 C 632.300781 -291.691406 636.484375 -297.140625 641.046875 -302.359375 C 644.929688 -307.117188 647.234375 -309.535156 647.953125 -309.609375 C 648.597656 -310.410156 649.828125 -310.898438 651.640625 -311.078125 C 654.515625 -311.378906 656.410156 -310.664062 657.328125 -308.9375 C 658.117188 -308.28125 658.625 -306.867188 658.84375 -304.703125 C 659.101562 -302.191406 658.390625 -300.296875 656.703125 -299.015625 C 656.703125 -299.015625 654.398438 -295.679688 649.796875 -289.015625 C 645.191406 -282.347656 639.925781 -272.335938 634 -258.984375 C 629.257812 -248.296875 625.660156 -237.171875 623.203125 -225.609375 C 620.742188 -214.054688 617.535156 -202.609375 613.578125 -191.265625 C 598.023438 -133.179688 580.054688 -83.5 559.671875 -42.21875 C 539.285156 -0.945312 517.722656 33.238281 494.984375 60.34375 C 472.242188 87.457031 449.128906 109.140625 425.640625 125.390625 C 402.160156 141.648438 379.363281 153.921875 357.25 162.203125 C 335.132812 170.484375 314.578125 176.226562 295.578125 179.4375 C 276.585938 182.65625 260.238281 184.96875 246.53125 186.375 C 208.65625 190.25 173.519531 187.097656 141.125 176.921875 C 108.738281 166.742188 81.070312 151.070312 58.125 129.90625 C 35.175781 108.75 19.125 83.703125 9.96875 54.765625 C 7.75 47.328125 5.898438 39.945312 4.421875 32.625 C 2.953125 25.300781 1.828125 17.851562 1.046875 10.28125 C -1.941406 -18.9375 0.300781 -47.78125 7.78125 -76.25 C 15.257812 -104.71875 27.410156 -131.113281 44.234375 -155.4375 C 61.054688 -179.757812 81.757812 -200.101562 106.34375 -216.46875 C 127.519531 -230.289062 148.507812 -240.632812 169.3125 -247.5 C 190.125 -254.375 210.269531 -258.804688 229.75 -260.796875 L 233.546875 -261.1875 C 237.410156 -273.25 241.753906 -285.085938 246.578125 -296.703125 C 251.410156 -308.316406 256.585938 -319.144531 262.109375 -329.1875 C 279.585938 -361.59375 300.519531 -393.078125 324.90625 -423.640625 C 349.289062 -454.203125 376.160156 -481.921875 405.515625 -506.796875 C 434.867188 -531.671875 465.941406 -552.164062 498.734375 -568.28125 C 531.535156 -584.394531 564.890625 -594.1875 598.796875 -597.65625 C 620.085938 -599.832031 639.832031 -597.476562 658.03125 -590.59375 C 676.226562 -583.707031 689.222656 -572.460938 697.015625 -556.859375 C 702.453125 -546.484375 705.796875 -535.160156 707.046875 -522.890625 C 709.335938 -500.523438 705.019531 -475.929688 694.09375 -449.109375 C 683.175781 -422.296875 666.453125 -396.070312 643.921875 -370.4375 C 622.066406 -345.238281 601.1875 -325.695312 581.28125 -311.8125 C 561.382812 -297.925781 543.082031 -288.03125 526.375 -282.125 C 509.664062 -276.226562 495.175781 -272.65625 482.90625 -271.40625 C 471.71875 -270.257812 462.96875 -270.273438 456.65625 -271.453125 C 450.351562 -272.628906 447.019531 -273.203125 446.65625 -273.171875 C 444.78125 -273.691406 441.691406 -275.375 437.390625 -278.21875 C 433.085938 -281.0625 429.519531 -285.625 426.6875 -291.90625 Z M 336.453125 -14.203125 C 324.179688 -12.941406 311.476562 -13.28125 298.34375 -15.21875 C 285.207031 -17.15625 273.164062 -20.84375 262.21875 -26.28125 C 251.269531 -31.726562 242.796875 -38.878906 236.796875 -47.734375 C 231.128906 -56.640625 226.535156 -66.742188 223.015625 -78.046875 C 219.503906 -89.347656 217.066406 -101.671875 215.703125 -115.015625 C 213.742188 -134.140625 213.914062 -154.664062 216.21875 -176.59375 C 218.53125 -198.519531 222.585938 -220.351562 228.390625 -242.09375 C 209.304688 -239.769531 190.507812 -235.5625 172 -229.46875 C 153.488281 -223.382812 136.71875 -215.382812 121.6875 -205.46875 C 98.8125 -190.351562 79.875 -171.457031 64.875 -148.78125 C 49.875 -126.113281 39.066406 -101.679688 32.453125 -75.484375 C 25.835938 -49.296875 23.914062 -22.671875 26.6875 4.390625 C 27.46875 11.960938 28.597656 19.40625 30.078125 26.71875 C 31.554688 34.039062 33.398438 41.421875 35.609375 48.859375 C 44.222656 76.035156 58.976562 98.210938 79.875 115.390625 C 100.78125 132.578125 126.171875 144.65625 156.046875 151.625 C 185.921875 158.59375 218.546875 160.445312 253.921875 157.1875 C 273.046875 155.226562 294.171875 149.691406 317.296875 140.578125 C 340.421875 131.472656 363.894531 118.679688 387.71875 102.203125 C 411.550781 85.734375 433.726562 65.519531 454.25 41.5625 C 463.019531 31.1875 474.140625 17.015625 487.609375 -0.953125 C 501.085938 -18.921875 515.179688 -39.773438 529.890625 -63.515625 C 544.597656 -87.253906 558.644531 -112.929688 572.03125 -140.546875 C 585.425781 -168.160156 596.65625 -196.46875 605.71875 -225.46875 C 596.21875 -211.375 584.535156 -195.503906 570.671875 -177.859375 C 556.804688 -160.210938 541.320312 -142.3125 524.21875 -124.15625 C 507.125 -106.007812 488.535156 -89.070312 468.453125 -73.34375 C 448.378906 -57.625 427.222656 -44.4375 404.984375 -33.78125 C 382.742188 -23.125 359.898438 -16.597656 336.453125 -14.203125 Z M 336.453125 -14.203125 "/></g></g></g></g></g><g transform="matrix(1, 0, 0, 1, 294, 386)"><g clip-path="url(#8ca6972aab)"><g fill="#d9d8c3" fill-opacity="1"><g transform="translate(62.216523, 658.195631)"><g><path d="M 786.953125 -543.65625 L 787.21875 -540.9375 C 786.195312 -533.175781 782.078125 -528.925781 774.859375 -528.1875 C 768.972656 -528.675781 765.660156 -532.523438 764.921875 -539.734375 L 764.703125 -541.90625 C 764.703125 -541.90625 764.800781 -542.734375 765 -544.390625 C 765.195312 -546.054688 765.164062 -548.148438 764.90625 -550.671875 C 764.394531 -555.722656 762.441406 -561.445312 759.046875 -567.84375 C 755.660156 -574.238281 749.085938 -578.757812 739.328125 -581.40625 C 728.515625 -583.945312 717.691406 -584.664062 706.859375 -583.5625 C 697.117188 -582.5625 688.90625 -580.898438 682.21875 -578.578125 C 675.539062 -576.253906 672.203125 -575.09375 672.203125 -575.09375 C 666.285156 -572.300781 659.710938 -568.804688 652.484375 -564.609375 C 645.265625 -560.410156 637.4375 -554.960938 629 -548.265625 L 636.390625 -540.28125 C 647.160156 -527.519531 656.113281 -513.023438 663.25 -496.796875 C 670.382812 -480.578125 674.96875 -462.550781 677 -442.71875 C 678.695312 -426.125 678.328125 -408.316406 675.890625 -389.296875 C 673.460938 -370.273438 668.59375 -350.179688 661.28125 -329.015625 C 649.164062 -294.234375 634.6875 -263.859375 617.84375 -237.890625 C 601 -211.929688 583.125 -189.78125 564.21875 -171.4375 C 545.320312 -153.101562 526.726562 -137.988281 508.4375 -126.09375 C 490.15625 -114.207031 473.425781 -104.9375 458.25 -98.28125 C 443.082031 -91.632812 430.898438 -86.925781 421.703125 -84.15625 C 412.503906 -81.394531 407.722656 -79.992188 407.359375 -79.953125 C 403.390625 -79.546875 400.988281 -81.671875 400.15625 -86.328125 C 399.820312 -89.578125 401.398438 -91.925781 404.890625 -93.375 C 405.253906 -93.414062 410.78125 -95.53125 421.46875 -99.71875 C 432.15625 -103.914062 446.003906 -111.070312 463.015625 -121.1875 C 480.023438 -131.3125 498.195312 -145.203125 517.53125 -162.859375 C 536.863281 -180.515625 555.546875 -202.75 573.578125 -229.5625 C 591.617188 -256.375 606.734375 -288.628906 618.921875 -326.328125 C 625.578125 -346.679688 630.890625 -367.722656 634.859375 -389.453125 C 638.835938 -411.191406 639.753906 -432.523438 637.609375 -453.453125 C 636.203125 -467.160156 633.191406 -480.519531 628.578125 -493.53125 C 623.972656 -506.539062 617.414062 -518.992188 608.90625 -530.890625 C 579.707031 -502.742188 554.441406 -470.898438 533.109375 -435.359375 C 511.773438 -399.828125 492.765625 -363.898438 476.078125 -327.578125 C 471.265625 -317.597656 466.476562 -307.351562 461.71875 -296.84375 C 456.96875 -286.332031 452.078125 -275.351562 447.046875 -263.90625 C 422.242188 -207.0625 399.90625 -158.207031 380.03125 -117.34375 C 360.15625 -76.488281 341.96875 -42.273438 325.46875 -14.703125 C 308.96875 12.859375 293.570312 35.207031 279.28125 52.34375 C 265 69.476562 251.3125 82.632812 238.21875 91.8125 C 225.125 100.988281 212.054688 107.707031 199.015625 111.96875 C 188.398438 115.226562 178.585938 117.316406 169.578125 118.234375 C 150.816406 120.160156 135.945312 119.132812 124.96875 115.15625 C 114 111.175781 105.796875 105.816406 100.359375 99.078125 C 94.921875 92.335938 91.347656 85.960938 89.640625 79.953125 C 87.941406 73.941406 86.984375 69.851562 86.765625 67.6875 C 86.578125 65.882812 87.5 64.238281 89.53125 62.75 C 91.5625 61.257812 92.757812 60.5 93.125 60.46875 C 97.457031 60.019531 99.84375 61.960938 100.28125 66.296875 C 100.65625 69.898438 102.5 74.539062 105.8125 80.21875 C 109.125 85.894531 113.191406 90.945312 118.015625 95.375 C 122.847656 99.800781 127.242188 101.8125 131.203125 101.40625 C 133.085938 101.9375 136.535156 102.675781 141.546875 103.625 C 146.566406 104.570312 152.507812 104.691406 159.375 103.984375 C 162.25 103.691406 165.289062 103.195312 168.5 102.5 C 171.707031 101.8125 175.0625 100.742188 178.5625 99.296875 C 188.375 95.367188 198.644531 88.84375 209.375 79.71875 C 220.113281 70.601562 232.023438 56.992188 245.109375 38.890625 C 258.203125 20.785156 272.960938 -3.226562 289.390625 -33.15625 C 305.828125 -63.09375 324.675781 -100.65625 345.9375 -145.84375 C 349.238281 -152.75 353.71875 -162.410156 359.375 -174.828125 C 365.039062 -187.242188 371.066406 -200.523438 377.453125 -214.671875 C 383.847656 -228.828125 390.101562 -242.503906 396.21875 -255.703125 C 402.332031 -268.898438 407.378906 -280.078125 411.359375 -289.234375 C 415.347656 -298.398438 417.8125 -303.753906 418.75 -305.296875 C 419.90625 -308.335938 423.535156 -316.546875 429.640625 -329.921875 C 435.742188 -343.304688 444 -359.644531 454.40625 -378.9375 C 464.820312 -398.226562 477.296875 -418.820312 491.828125 -440.71875 C 506.359375 -462.625 522.820312 -483.445312 541.21875 -503.1875 C 558.34375 -520.976562 575.03125 -535.988281 591.28125 -548.21875 C 573.832031 -562.113281 552.414062 -571.953125 527.03125 -577.734375 C 501.644531 -583.523438 474.882812 -584.976562 446.75 -582.09375 C 411.039062 -578.445312 377.773438 -570.488281 346.953125 -558.21875 C 316.128906 -545.945312 287.773438 -530.921875 261.890625 -513.140625 C 236.003906 -495.367188 212.796875 -476.320312 192.265625 -456 C 171.742188 -435.675781 153.945312 -415.445312 138.875 -395.3125 C 123.8125 -375.1875 111.503906 -356.613281 101.953125 -339.59375 C 89.628906 -317.550781 79.390625 -297.363281 71.234375 -279.03125 C 63.085938 -260.707031 57.015625 -246.144531 53.015625 -235.34375 C 49.015625 -224.539062 47.015625 -219.140625 47.015625 -219.140625 L 36.71875 -180.90625 C 35.925781 -177.914062 35.296875 -175.117188 34.828125 -172.515625 C 34.367188 -169.910156 33.910156 -167.316406 33.453125 -164.734375 C 29.210938 -142.054688 28.109375 -120.796875 30.140625 -100.953125 C 31.054688 -91.929688 32.660156 -83.347656 34.953125 -75.203125 C 37.242188 -67.054688 40.367188 -59.71875 44.328125 -53.1875 C 46.960938 -48.726562 50.753906 -44.5625 55.703125 -40.6875 C 60.660156 -36.820312 66.6875 -33.984375 73.78125 -32.171875 C 77.125 -31.773438 80.4375 -31.5625 83.71875 -31.53125 C 87 -31.5 90.265625 -31.648438 93.515625 -31.984375 C 108.660156 -33.535156 123.242188 -38.765625 137.265625 -47.671875 C 151.296875 -56.585938 164.90625 -67.910156 178.09375 -81.640625 C 196.445312 -101.753906 211.890625 -124.476562 224.421875 -149.8125 C 236.960938 -175.15625 246.5625 -199.828125 253.21875 -223.828125 C 257.007812 -236.617188 259.488281 -248.90625 260.65625 -260.6875 C 261.820312 -272.476562 262.375 -282.195312 262.3125 -289.84375 C 262.257812 -297.488281 262.234375 -301.3125 262.234375 -301.3125 L 261.953125 -304.015625 C 262.203125 -308.773438 263.429688 -312.816406 265.640625 -316.140625 C 267.847656 -319.472656 271.300781 -321.378906 276 -321.859375 C 283.644531 -321.910156 287.96875 -317.066406 288.96875 -307.328125 L 289.296875 -304.09375 C 289.410156 -303.007812 289.210938 -301.34375 288.703125 -299.09375 C 287.359375 -287.289062 285.113281 -275.394531 281.96875 -263.40625 C 278.820312 -251.425781 275.492188 -240.335938 271.984375 -230.140625 C 268.472656 -219.941406 265.578125 -211.71875 263.296875 -205.46875 C 261.015625 -199.21875 259.875 -196.09375 259.875 -196.09375 C 251.882812 -174.488281 241.984375 -152.785156 230.171875 -130.984375 C 218.367188 -109.191406 204.425781 -89.632812 188.34375 -72.3125 C 172.945312 -55.425781 156.648438 -41.910156 139.453125 -31.765625 C 122.265625 -21.617188 104.472656 -15.601562 86.078125 -13.71875 C 84.273438 -13.53125 82.378906 -13.332031 80.390625 -13.125 C 78.410156 -12.925781 76.320312 -12.898438 74.125 -13.046875 C 43.957031 -12.148438 22.15625 -22.132812 8.71875 -43 C -0.863281 -58.414062 -7.222656 -77.8125 -10.359375 -101.1875 C -10.359375 -101.1875 -10.421875 -101.816406 -10.546875 -103.078125 C -10.671875 -104.347656 -10.847656 -106.0625 -11.078125 -108.21875 C -11.734375 -114.71875 -11.910156 -125.363281 -11.609375 -140.15625 C -11.304688 -154.945312 -9.25 -173.109375 -5.4375 -194.640625 C -1.625 -216.171875 5.441406 -240.585938 15.765625 -267.890625 C 26.097656 -295.191406 40.796875 -324.398438 59.859375 -355.515625 C 61.066406 -357.828125 65.285156 -364.640625 72.515625 -375.953125 C 79.753906 -387.265625 90.253906 -401.367188 104.015625 -418.265625 C 117.785156 -435.160156 134.820312 -453.03125 155.125 -471.875 C 175.4375 -490.726562 199.179688 -508.925781 226.359375 -526.46875 C 253.546875 -544.007812 284.25 -559.179688 318.46875 -571.984375 C 352.695312 -584.785156 390.378906 -593.289062 431.515625 -597.5 C 443.773438 -598.75 456.09375 -599.457031 468.46875 -599.625 C 503.71875 -600.6875 532.804688 -597.832031 555.734375 -591.0625 C 578.671875 -584.300781 597.675781 -574.941406 612.75 -562.984375 C 633.632812 -576.066406 651.59375 -584.832031 666.625 -589.28125 C 681.664062 -593.738281 691.515625 -596.390625 696.171875 -597.234375 L 701.578125 -597.78125 C 717.097656 -599.375 730.109375 -598.703125 740.609375 -595.765625 C 751.109375 -592.828125 760.140625 -588.28125 767.703125 -582.125 C 773.265625 -577.59375 777.585938 -571.835938 780.671875 -564.859375 C 783.753906 -557.890625 785.847656 -550.820312 786.953125 -543.65625 Z M 786.953125 -543.65625 "/></g></g></g></g></g><path fill="#d9d8c3" d="M 634.851562 1321.410156 C 627.246094 1282.28125 579.5625 1281.625 567.804688 1318.207031 C 556.046875 1281.628906 508.363281 1282.28125 500.757812 1321.410156 C 493.855469 1356.910156 567.804688 1412.917969 567.804688 1412.917969 C 567.804688 1412.917969 641.753906 1356.910156 634.851562 1321.410156 Z M 634.851562 1321.410156 " fill-opacity="1" fill-rule="nonzero"/></g></g></svg>