<svg xmlns="http://www.w3.org/2000/svg" xmlns:xlink="http://www.w3.org/1999/xlink" width="2000" zoomAndPan="magnify" viewBox="0 0 1500 1499.999933" height="2000" preserveAspectRatio="xMidYMid meet" version="1.0"><defs><g/><clipPath id="f8046b0aaf"><rect x="0" width="350" y="0" height="462"/></clipPath><clipPath id="e676c586a6"><rect x="0" width="379" y="0" height="466"/></clipPath><clipPath id="822e547603"><path d="M 725 985 L 779 985 L 779 1033.578125 L 725 1033.578125 Z M 725 985 " clip-rule="nonzero"/></clipPath></defs><g transform="matrix(1, 0, 0, 1, 526, 469)"><g clip-path="url(#f8046b0aaf)"><g fill="#d9d8c3" fill-opacity="1"><g transform="translate(25.93285, 258.262586)"><g><path d="M 169.40625 -115.890625 C 169.195312 -116.585938 168.9375 -117.351562 168.625 -118.1875 C 168.320312 -119.03125 168.128906 -119.882812 168.046875 -120.75 C 167.648438 -124.613281 168.617188 -129.34375 170.953125 -134.9375 C 171.171875 -135.539062 171.492188 -136.222656 171.921875 -136.984375 C 172.347656 -137.753906 172.601562 -138.4375 172.6875 -139.03125 L 175.5 -143.421875 C 177.257812 -146.066406 179.625 -149.132812 182.59375 -152.625 C 185.5625 -156.113281 188.929688 -159.207031 192.703125 -161.90625 C 193.796875 -162.613281 194.984375 -163.03125 196.265625 -163.15625 C 198.566406 -163.394531 200.210938 -162.90625 201.203125 -161.6875 C 201.691406 -161.164062 201.992188 -160.328125 202.109375 -159.171875 C 202.242188 -157.890625 201.878906 -156.515625 201.015625 -155.046875 C 200.148438 -153.585938 198.535156 -152.375 196.171875 -151.40625 C 194.921875 -151 192.925781 -150.003906 190.1875 -148.421875 C 187.445312 -146.835938 184.671875 -144.597656 181.859375 -141.703125 C 179.046875 -138.804688 176.789062 -135.101562 175.09375 -130.59375 C 173.863281 -126.84375 173.378906 -123.679688 173.640625 -121.109375 C 173.734375 -120.242188 173.984375 -119.257812 174.390625 -118.15625 C 175.117188 -116.632812 175.984375 -115.5625 176.984375 -114.9375 C 177.992188 -114.3125 178.734375 -113.878906 179.203125 -113.640625 C 179.335938 -113.648438 180.035156 -113.46875 181.296875 -113.09375 C 182.566406 -112.71875 184.492188 -112.660156 187.078125 -112.921875 C 190.234375 -113.242188 194.242188 -114.410156 199.109375 -116.421875 C 203.972656 -118.441406 209.753906 -122.039062 216.453125 -127.21875 C 223.148438 -132.394531 230.71875 -139.757812 239.15625 -149.3125 C 249.53125 -161.0625 257.050781 -172.75 261.71875 -184.375 C 266.394531 -196.007812 268.332031 -205.765625 267.53125 -213.640625 C 267.28125 -216.078125 266.671875 -218.472656 265.703125 -220.828125 C 261.484375 -229.515625 252.351562 -233.140625 238.3125 -231.703125 C 230 -230.859375 221.472656 -228.253906 212.734375 -223.890625 C 203.992188 -219.523438 195.382812 -213.898438 186.90625 -207.015625 C 178.425781 -200.140625 170.273438 -192.425781 162.453125 -183.875 C 154.640625 -175.332031 147.445312 -166.421875 140.875 -157.140625 C 134.3125 -147.867188 128.597656 -138.710938 123.734375 -129.671875 C 121.660156 -125.847656 119.6875 -121.738281 117.8125 -117.34375 C 115.9375 -112.957031 114.226562 -108.4375 112.6875 -103.78125 C 122.3125 -103.03125 130.863281 -101.445312 138.34375 -99.03125 C 145.832031 -96.613281 151.75 -94.328125 156.09375 -92.171875 C 160.4375 -90.015625 162.617188 -88.863281 162.640625 -88.71875 C 163.296875 -87.914062 163.648438 -87.300781 163.703125 -86.875 C 163.773438 -86.144531 163.550781 -85.46875 163.03125 -84.84375 C 162.644531 -84.382812 162.097656 -84.117188 161.390625 -84.046875 C 160.671875 -83.972656 159.925781 -84.109375 159.15625 -84.453125 C 154.757812 -86.460938 150.175781 -88.488281 145.40625 -90.53125 C 140.644531 -92.582031 134.066406 -94.335938 125.671875 -95.796875 C 123.304688 -96.265625 120.878906 -96.628906 118.390625 -96.890625 C 115.910156 -97.148438 113.289062 -97.285156 110.53125 -97.296875 C 107.832031 -88.328125 105.894531 -79.332031 104.71875 -70.3125 C 103.539062 -61.289062 103.34375 -52.984375 104.125 -45.390625 C 105.03125 -36.515625 107.375 -29.15625 111.15625 -23.3125 C 114.070312 -18.832031 117.84375 -15.925781 122.46875 -14.59375 C 127.09375 -13.257812 130.976562 -12.753906 134.125 -13.078125 C 144.289062 -14.117188 154.109375 -17.148438 163.578125 -22.171875 C 173.054688 -27.191406 181.976562 -33.347656 190.34375 -40.640625 C 198.71875 -47.941406 206.363281 -55.601562 213.28125 -63.625 C 220.207031 -71.644531 226.175781 -79.128906 231.1875 -86.078125 C 236.195312 -93.023438 240.097656 -98.738281 242.890625 -103.21875 C 245.679688 -107.707031 247.144531 -110.03125 247.28125 -110.1875 C 247.28125 -110.1875 248.035156 -111.3125 249.546875 -113.5625 C 251.054688 -115.8125 252.71875 -117.972656 254.53125 -120.046875 C 256.070312 -121.941406 256.988281 -122.90625 257.28125 -122.9375 C 257.519531 -123.25 258.003906 -123.441406 258.734375 -123.515625 C 259.878906 -123.628906 260.628906 -123.34375 260.984375 -122.65625 C 261.296875 -122.40625 261.492188 -121.851562 261.578125 -121 C 261.679688 -119.988281 261.398438 -119.238281 260.734375 -118.75 C 260.734375 -118.75 259.816406 -117.421875 257.984375 -114.765625 C 256.160156 -112.117188 254.078125 -108.140625 251.734375 -102.828125 C 249.847656 -98.578125 248.414062 -94.160156 247.4375 -89.578125 C 246.457031 -84.992188 245.1875 -80.445312 243.625 -75.9375 C 237.4375 -52.875 230.296875 -33.148438 222.203125 -16.765625 C 214.117188 -0.378906 205.5625 13.195312 196.53125 23.96875 C 187.5 34.738281 178.320312 43.347656 169 49.796875 C 159.675781 56.242188 150.625 61.109375 141.84375 64.390625 C 133.0625 67.679688 124.894531 69.960938 117.34375 71.234375 C 109.800781 72.515625 103.3125 73.4375 97.875 74 C 82.84375 75.53125 68.894531 74.273438 56.03125 70.234375 C 43.164062 66.191406 32.179688 59.972656 23.078125 51.578125 C 13.972656 43.179688 7.601562 33.238281 3.96875 21.75 C 3.082031 18.789062 2.34375 15.859375 1.75 12.953125 C 1.164062 10.046875 0.722656 7.09375 0.421875 4.09375 C -0.765625 -7.519531 0.125 -18.976562 3.09375 -30.28125 C 6.0625 -41.582031 10.882812 -52.0625 17.5625 -61.71875 C 24.238281 -71.375 32.457031 -79.453125 42.21875 -85.953125 C 50.632812 -91.441406 58.96875 -95.550781 67.21875 -98.28125 C 75.476562 -101.007812 83.476562 -102.769531 91.21875 -103.5625 L 92.71875 -103.71875 C 94.257812 -108.488281 95.988281 -113.179688 97.90625 -117.796875 C 99.820312 -122.410156 101.878906 -126.710938 104.078125 -130.703125 C 111.015625 -143.566406 119.320312 -156.066406 129 -168.203125 C 138.6875 -180.335938 149.359375 -191.34375 161.015625 -201.21875 C 172.671875 -211.09375 185.007812 -219.226562 198.03125 -225.625 C 211.050781 -232.019531 224.289062 -235.90625 237.75 -237.28125 C 246.207031 -238.144531 254.046875 -237.210938 261.265625 -234.484375 C 268.492188 -231.753906 273.660156 -227.289062 276.765625 -221.09375 C 278.910156 -216.96875 280.234375 -212.472656 280.734375 -207.609375 C 281.640625 -198.722656 279.921875 -188.957031 275.578125 -178.3125 C 271.242188 -167.664062 264.601562 -157.253906 255.65625 -147.078125 C 246.988281 -137.066406 238.703125 -129.304688 230.796875 -123.796875 C 222.898438 -118.296875 215.632812 -114.375 209 -112.03125 C 202.363281 -109.6875 196.613281 -108.265625 191.75 -107.765625 C 187.300781 -107.304688 183.820312 -107.3125 181.3125 -107.78125 C 178.8125 -108.25 177.492188 -108.472656 177.359375 -108.453125 C 176.597656 -108.671875 175.363281 -109.34375 173.65625 -110.46875 C 171.957031 -111.59375 170.539062 -113.398438 169.40625 -115.890625 Z M 133.59375 -5.65625 C 128.71875 -5.15625 123.671875 -5.285156 118.453125 -6.046875 C 113.242188 -6.804688 108.460938 -8.269531 104.109375 -10.4375 C 99.765625 -12.601562 96.398438 -15.441406 94.015625 -18.953125 C 91.773438 -22.492188 89.953125 -26.503906 88.546875 -30.984375 C 87.148438 -35.460938 86.179688 -40.359375 85.640625 -45.671875 C 84.859375 -53.253906 84.925781 -61.398438 85.84375 -70.109375 C 86.769531 -78.816406 88.382812 -87.484375 90.6875 -96.109375 C 83.113281 -95.191406 75.648438 -93.523438 68.296875 -91.109375 C 60.941406 -88.691406 54.28125 -85.515625 48.3125 -81.578125 C 39.226562 -75.578125 31.707031 -68.070312 25.75 -59.0625 C 19.800781 -50.0625 15.515625 -40.363281 12.890625 -29.96875 C 10.265625 -19.570312 9.5 -9 10.59375 1.75 C 10.90625 4.757812 11.351562 7.71875 11.9375 10.625 C 12.53125 13.53125 13.265625 16.453125 14.140625 19.390625 C 17.554688 30.191406 23.410156 39 31.703125 45.8125 C 40.003906 52.632812 50.085938 57.429688 61.953125 60.203125 C 73.816406 62.972656 86.773438 63.707031 100.828125 62.40625 C 108.410156 61.625 116.789062 59.425781 125.96875 55.8125 C 135.15625 52.207031 144.476562 47.132812 153.9375 40.59375 C 163.40625 34.050781 172.210938 26.015625 180.359375 16.484375 C 183.847656 12.367188 188.265625 6.75 193.609375 -0.375 C 198.960938 -7.507812 204.554688 -15.785156 210.390625 -25.203125 C 216.222656 -34.628906 221.800781 -44.828125 227.125 -55.796875 C 232.445312 -66.765625 236.898438 -78.003906 240.484375 -89.515625 C 236.722656 -83.921875 232.085938 -77.617188 226.578125 -70.609375 C 221.078125 -63.609375 214.929688 -56.503906 208.140625 -49.296875 C 201.347656 -42.085938 193.96875 -35.359375 186 -29.109375 C 178.03125 -22.867188 169.628906 -17.632812 160.796875 -13.40625 C 151.960938 -9.1875 142.894531 -6.601562 133.59375 -5.65625 Z M 133.59375 -5.65625 "/></g></g></g></g></g><g transform="matrix(1, 0, 0, 1, 643, 625)"><g clip-path="url(#e676c586a6)"><g fill="#d9d8c3" fill-opacity="1"><g transform="translate(24.875741, 261.880415)"><g><path d="M 312.453125 -215.84375 L 312.5625 -214.765625 C 312.164062 -211.691406 310.53125 -210.007812 307.65625 -209.71875 C 305.320312 -209.90625 304.007812 -211.429688 303.71875 -214.296875 L 303.625 -215.15625 C 303.625 -215.15625 303.660156 -215.484375 303.734375 -216.140625 C 303.816406 -216.796875 303.804688 -217.628906 303.703125 -218.640625 C 303.503906 -220.648438 302.726562 -222.921875 301.375 -225.453125 C 300.03125 -227.992188 297.425781 -229.789062 293.5625 -230.84375 C 289.25 -231.863281 284.941406 -232.15625 280.640625 -231.71875 C 276.773438 -231.320312 273.515625 -230.65625 270.859375 -229.71875 C 268.210938 -228.789062 266.890625 -228.328125 266.890625 -228.328125 C 264.546875 -227.222656 261.9375 -225.835938 259.0625 -224.171875 C 256.195312 -222.503906 253.09375 -220.335938 249.75 -217.671875 L 252.671875 -214.515625 C 256.953125 -209.441406 260.507812 -203.6875 263.34375 -197.25 C 266.175781 -190.820312 267.992188 -183.664062 268.796875 -175.78125 C 269.472656 -169.195312 269.328125 -162.128906 268.359375 -154.578125 C 267.398438 -147.023438 265.46875 -139.046875 262.5625 -130.640625 C 257.75 -116.828125 251.992188 -104.765625 245.296875 -94.453125 C 238.609375 -84.148438 231.515625 -75.359375 224.015625 -68.078125 C 216.523438 -60.796875 209.144531 -54.789062 201.875 -50.0625 C 194.613281 -45.34375 187.96875 -41.660156 181.9375 -39.015625 C 175.914062 -36.378906 171.078125 -34.515625 167.421875 -33.421875 C 163.773438 -32.328125 161.878906 -31.769531 161.734375 -31.75 C 160.160156 -31.59375 159.207031 -32.429688 158.875 -34.265625 C 158.75 -35.554688 159.375 -36.488281 160.75 -37.0625 C 160.894531 -37.082031 163.085938 -37.925781 167.328125 -39.59375 C 171.578125 -41.257812 177.078125 -44.101562 183.828125 -48.125 C 190.585938 -52.144531 197.804688 -57.65625 205.484375 -64.65625 C 213.171875 -71.664062 220.585938 -80.492188 227.734375 -91.140625 C 234.890625 -101.796875 240.890625 -114.601562 245.734375 -129.5625 C 248.367188 -137.65625 250.476562 -146.015625 252.0625 -154.640625 C 253.644531 -163.265625 254.007812 -171.734375 253.15625 -180.046875 C 252.601562 -185.484375 251.410156 -190.785156 249.578125 -195.953125 C 247.742188 -201.128906 245.140625 -206.070312 241.765625 -210.78125 C 230.171875 -199.613281 220.140625 -186.972656 211.671875 -172.859375 C 203.203125 -158.742188 195.648438 -144.472656 189.015625 -130.046875 C 187.109375 -126.097656 185.207031 -122.035156 183.3125 -117.859375 C 181.425781 -113.691406 179.492188 -109.332031 177.515625 -104.78125 C 167.660156 -82.21875 158.785156 -62.820312 150.890625 -46.59375 C 142.992188 -30.363281 135.769531 -16.78125 129.21875 -5.84375 C 122.675781 5.09375 116.566406 13.960938 110.890625 20.765625 C 105.222656 27.578125 99.785156 32.800781 94.578125 36.4375 C 89.378906 40.082031 84.1875 42.753906 79 44.453125 C 74.789062 45.753906 70.898438 46.585938 67.328125 46.953125 C 59.878906 47.710938 53.972656 47.300781 49.609375 45.71875 C 45.253906 44.144531 42 42.019531 39.84375 39.34375 C 37.6875 36.664062 36.265625 34.128906 35.578125 31.734375 C 34.898438 29.347656 34.519531 27.726562 34.4375 26.875 C 34.363281 26.15625 34.734375 25.5 35.546875 24.90625 C 36.359375 24.320312 36.835938 24.019531 36.984375 24 C 38.703125 23.820312 39.648438 24.59375 39.828125 26.3125 C 39.972656 27.738281 40.703125 29.578125 42.015625 31.828125 C 43.328125 34.085938 44.941406 36.097656 46.859375 37.859375 C 48.785156 39.617188 50.535156 40.421875 52.109375 40.265625 C 52.847656 40.472656 54.210938 40.765625 56.203125 41.140625 C 58.203125 41.515625 60.5625 41.5625 63.28125 41.28125 C 64.425781 41.164062 65.632812 40.96875 66.90625 40.6875 C 68.1875 40.414062 69.519531 40 70.90625 39.4375 C 74.789062 37.863281 78.863281 35.265625 83.125 31.640625 C 87.382812 28.023438 92.113281 22.625 97.3125 15.4375 C 102.507812 8.25 108.375 -1.285156 114.90625 -13.171875 C 121.4375 -25.054688 128.925781 -39.96875 137.375 -57.90625 C 138.675781 -60.644531 140.445312 -64.484375 142.6875 -69.421875 C 144.9375 -74.359375 147.328125 -79.628906 149.859375 -85.234375 C 152.398438 -90.847656 154.882812 -96.273438 157.3125 -101.515625 C 159.75 -106.765625 161.753906 -111.207031 163.328125 -114.84375 C 164.910156 -118.476562 165.894531 -120.601562 166.28125 -121.21875 C 166.726562 -122.425781 168.164062 -125.6875 170.59375 -131 C 173.019531 -136.3125 176.296875 -142.796875 180.421875 -150.453125 C 184.554688 -158.117188 189.507812 -166.296875 195.28125 -174.984375 C 201.050781 -183.679688 207.585938 -191.945312 214.890625 -199.78125 C 221.691406 -206.84375 228.316406 -212.804688 234.765625 -217.671875 C 227.828125 -223.191406 219.320312 -227.097656 209.25 -229.390625 C 199.175781 -231.679688 188.550781 -232.253906 177.375 -231.109375 C 163.207031 -229.660156 150 -226.5 137.75 -221.625 C 125.507812 -216.757812 114.25 -210.796875 103.96875 -203.734375 C 93.695312 -196.679688 84.488281 -189.117188 76.34375 -181.046875 C 68.195312 -172.984375 61.128906 -164.953125 55.140625 -156.953125 C 49.160156 -148.960938 44.273438 -141.59375 40.484375 -134.84375 C 35.585938 -126.09375 31.519531 -118.078125 28.28125 -110.796875 C 25.039062 -103.515625 22.625 -97.726562 21.03125 -93.4375 C 19.445312 -89.15625 18.65625 -87.015625 18.65625 -87.015625 L 14.578125 -71.828125 C 14.265625 -70.640625 14.015625 -69.523438 13.828125 -68.484375 C 13.640625 -67.453125 13.457031 -66.421875 13.28125 -65.390625 C 11.601562 -56.390625 11.164062 -47.953125 11.96875 -40.078125 C 12.332031 -36.503906 12.96875 -33.097656 13.875 -29.859375 C 14.78125 -26.617188 16.019531 -23.707031 17.59375 -21.125 C 18.644531 -19.351562 20.148438 -17.695312 22.109375 -16.15625 C 24.078125 -14.625 26.476562 -13.492188 29.3125 -12.765625 C 30.625 -12.609375 31.929688 -12.523438 33.234375 -12.515625 C 34.535156 -12.503906 35.828125 -12.566406 37.109375 -12.703125 C 43.128906 -13.316406 48.925781 -15.390625 54.5 -18.921875 C 60.070312 -22.453125 65.472656 -26.953125 70.703125 -32.421875 C 77.984375 -40.398438 84.113281 -49.421875 89.09375 -59.484375 C 94.082031 -69.546875 97.898438 -79.347656 100.546875 -88.890625 C 102.054688 -93.960938 103.039062 -98.832031 103.5 -103.5 C 103.957031 -108.175781 104.175781 -112.035156 104.15625 -115.078125 C 104.132812 -118.117188 104.125 -119.640625 104.125 -119.640625 L 104.015625 -120.71875 C 104.097656 -122.601562 104.582031 -124.203125 105.46875 -125.515625 C 106.351562 -126.835938 107.722656 -127.59375 109.578125 -127.78125 C 112.617188 -127.820312 114.335938 -125.90625 114.734375 -122.03125 L 114.875 -120.75 C 114.914062 -120.3125 114.832031 -119.648438 114.625 -118.765625 C 114.09375 -114.078125 113.203125 -109.347656 111.953125 -104.578125 C 110.703125 -99.816406 109.378906 -95.410156 107.984375 -91.359375 C 106.585938 -87.316406 105.4375 -84.054688 104.53125 -81.578125 C 103.632812 -79.097656 103.1875 -77.859375 103.1875 -77.859375 C 100.007812 -69.285156 96.078125 -60.671875 91.390625 -52.015625 C 86.710938 -43.359375 81.171875 -35.59375 74.765625 -28.71875 C 68.671875 -22.007812 62.207031 -16.640625 55.375 -12.609375 C 48.539062 -8.578125 41.472656 -6.1875 34.171875 -5.4375 C 33.453125 -5.363281 32.695312 -5.285156 31.90625 -5.203125 C 31.125 -5.128906 30.296875 -5.117188 29.421875 -5.171875 C 17.453125 -4.816406 8.800781 -8.78125 3.46875 -17.0625 C -0.34375 -23.1875 -2.867188 -30.894531 -4.109375 -40.1875 C -4.109375 -40.1875 -4.132812 -40.429688 -4.1875 -40.921875 C -4.238281 -41.421875 -4.304688 -42.101562 -4.390625 -42.96875 C -4.660156 -45.539062 -4.734375 -49.765625 -4.609375 -55.640625 C -4.492188 -61.515625 -3.675781 -68.722656 -2.15625 -77.265625 C -0.644531 -85.816406 2.160156 -95.515625 6.265625 -106.359375 C 10.367188 -117.210938 16.203125 -128.8125 23.765625 -141.15625 C 24.253906 -142.070312 25.929688 -144.773438 28.796875 -149.265625 C 31.671875 -153.753906 35.835938 -159.351562 41.296875 -166.0625 C 46.765625 -172.78125 53.53125 -179.878906 61.59375 -187.359375 C 69.65625 -194.835938 79.082031 -202.0625 89.875 -209.03125 C 100.664062 -216 112.851562 -222.019531 126.4375 -227.09375 C 140.03125 -232.175781 154.992188 -235.554688 171.328125 -237.234375 C 176.203125 -237.734375 181.09375 -238.007812 186 -238.0625 C 199.988281 -238.5 211.539062 -237.375 220.65625 -234.6875 C 229.769531 -232.007812 237.316406 -228.289062 243.296875 -223.53125 C 251.578125 -228.726562 258.703125 -232.207031 264.671875 -233.96875 C 270.648438 -235.738281 274.554688 -236.796875 276.390625 -237.140625 L 278.5625 -237.359375 C 284.71875 -237.984375 289.878906 -237.710938 294.046875 -236.546875 C 298.222656 -235.378906 301.8125 -233.578125 304.8125 -231.140625 C 307.019531 -229.335938 308.734375 -227.050781 309.953125 -224.28125 C 311.179688 -221.519531 312.015625 -218.707031 312.453125 -215.84375 Z M 312.453125 -215.84375 "/></g></g></g></g></g><g clip-path="url(#822e547603)"><path fill="#d9d8c3" d="M 778.507812 996.949219 C 775.488281 981.414062 756.554688 981.152344 751.886719 995.675781 C 747.21875 981.152344 728.285156 981.414062 725.265625 996.949219 C 722.527344 1011.042969 751.886719 1033.28125 751.886719 1033.28125 C 751.886719 1033.28125 781.25 1011.042969 778.507812 996.949219 Z M 778.507812 996.949219 " fill-opacity="1" fill-rule="nonzero"/></g></svg>